<?xml version="1.0" encoding="UTF-8"?>
<svg width="1200px" height="1200px" viewBox="0 0 1200 1200" version="1.1" xmlns="http://www.w3.org/2000/svg" xmlns:xlink="http://www.w3.org/1999/xlink">
    <title>Art</title>
    <defs>
        <circle id="path-1" cx="600" cy="600" r="600"></circle>
        <polygon id="path-3" points="0 0 293 0 293 200 0 200"></polygon>
    </defs>
    <g id="Art" stroke="none" stroke-width="1" fill="none" fill-rule="evenodd">
        <g id="编组-7">
            <path d="M965,281.99633 C941.069492,198.99266 862.19333,165.968848 716.601476,298.401805 C553.407046,446.840519 327.300058,321.503973 235.224718,372.109606 C143.149379,422.71464 195.981715,530.525155 323.659511,542.626776 C451.338508,554.727797 418.316722,668.042484 287.336868,680.138708 C156.357613,692.240928 42.9881369,772.548578 78.2094945,883.663515 C113.431452,994.772455 191.578971,939.766723 271.927861,836.358105 C352.276752,732.943491 484.359093,768.14668 495.365955,858.355601 C506.372817,948.570519 625.245724,826.456834 691.280893,924.366077 C729.156741,980.517263 943.5,948.788022 1018.5,858.355601 C1093.5,767.923179 860.747327,785.349518 860.747327,571.318456" id="Fill-11" fill="#FF7A57"></path>
            <mask id="mask-2" fill="white">
                <use xlink:href="#path-1"></use>
            </mask>
            <use id="椭圆形备份-2" fill="#FFEADA" xlink:href="#path-1"></use>
            <path d="M656.498646,765.845084 C576.184552,853.877771 640.507695,981.524928 847.090071,881.387386 C997.268591,808.592695 974.898298,697.999352 937.110558,635 L719.364031,635 C714.200687,670.802271 698.743648,719.540822 656.498646,765.845084" id="Fill-33" fill="#0087B0" mask="url(#mask-2)"></path>
            <g id="编组" mask="url(#mask-2)">
                <g transform="translate(349.000000, 265.000000)">
                    <mask id="mask-4" fill="white">
                        <use xlink:href="#path-3"></use>
                    </mask>
                    <g id="Clip-44" stroke="none" fill="none"></g>
                    <path d="M158.480049,137.286568 C157.60312,137.88406 156.700399,138.442519 155.804276,139.019593 C154.88476,139.55103 153.981439,140.124502 153.03853,140.622912 C151.183303,141.687587 149.2513,142.613548 147.297703,143.513088 C145.335109,144.389208 143.340126,145.226897 141.297757,145.921668 C140.276872,146.257945 139.251788,146.60503 138.224306,146.908279 C137.709065,147.065008 137.196823,147.203722 136.683982,147.339434 L135.245626,147.705735 L134.857546,147.803616 C133.455179,148.160909 132.412101,149.427951 132.39939,150.945399 C132.38451,152.750483 133.834262,154.226496 135.637305,154.242109 L136.669586,154.250736 C136.994086,154.252318 137.301191,154.24271 137.618493,154.233102 C138.241101,154.207281 138.862509,154.177256 139.476119,154.129817 C140.710538,154.049351 141.927562,153.908835 143.142187,153.732891 C145.564239,153.370192 147.975494,152.908413 150.339964,152.26048 C155.0797,151.001245 159.70727,149.226786 164.11171,146.965927 C172.927787,142.453817 180.854338,136.030336 187.240566,128.374641 C190.427981,124.54169 193.274102,120.440918 195.750737,116.147388 L197.530388,112.891511 C198.128403,111.807019 198.613053,110.675689 199.157685,109.568379 L199.952439,107.898405 L200.671617,106.20141 L202.071585,102.863866 C205.057463,95.2309903 209.700628,88.2526527 215.386272,81.9360592 C221.074315,75.6068553 227.767048,69.9309886 234.860457,64.5355525 C241.965263,59.1389154 249.482741,54.0125004 257.024211,48.6212678 C260.779651,45.9022322 264.543489,43.1087353 268.247945,40.1507032 C271.9536,37.1872667 275.57948,34.0256672 278.965434,30.4881587 C280.659311,28.7233076 282.295606,26.871385 283.832931,24.908371 C285.362458,22.9399526 286.775622,20.8466314 288.034033,18.6404175 C290.564052,14.2442029 292.354499,9.27391632 292.972308,4.18953594 C293.195439,2.36943946 292.050992,0.614796787 290.231155,0.127796375 C288.23917,-0.405442054 286.193202,0.778731574 285.661166,2.77297124 L285.64857,2.81980975 C284.590497,6.78006588 282.756263,10.4304672 280.361803,13.7764183 C279.164573,15.4499943 277.81439,17.0370992 276.374834,18.5677577 C274.941877,20.1056222 273.402153,21.5762313 271.788651,22.992796 C265.274663,28.6170202 257.814767,33.5572821 250.120944,38.3864527 C242.455311,43.2714691 234.554552,48.1246594 226.85413,53.5879514 C219.159107,59.0416354 211.608039,65.1018181 204.90271,72.3467749 C203.234626,74.1626679 201.624723,76.0500197 200.073002,77.9998228 C198.536877,79.9646383 197.064931,81.9955081 195.690156,84.1038416 C194.332175,86.2259864 193.05337,88.4081806 191.880133,90.6558286 C190.730288,92.9166875 189.65602,95.2225834 188.726907,97.5927321 L186.892074,102.105442 L186.22208,103.552632 C185.765022,104.51042 185.358947,105.500034 184.8623,106.434402 L183.423945,109.268732 C181.394771,112.977381 179.163461,116.558726 176.63944,119.914885 C171.633387,126.657829 165.515876,132.538465 158.480049,137.286568" id="Fill-43" stroke="none" fill="#003151" fill-rule="evenodd" mask="url(#mask-4)"></path>
                    <path d="M57.7963481,199.811176 C67.4167766,200.261547 77.0000165,199.885037 86.4728906,198.908034 C87.5309638,198.79454 88.3593079,197.888996 88.344513,196.802703 C88.3287174,195.649154 87.3822097,194.727396 86.2311653,194.743009 C76.8854519,194.862507 67.5631314,194.380911 58.4045602,193.118674 C49.2489882,191.867845 40.2565657,189.806951 31.6960099,186.786467 C23.1456509,183.757577 15.0283581,179.740874 7.80658873,174.652291 C5.04804078,172.707892 2.42445115,170.608566 -0.0359888839,168.366322 L-0.0359888839,183.732957 C0.47025475,184.037407 0.977698012,184.337654 1.48814035,184.633097 C10.1998495,189.657428 19.5347662,193.232167 29.0220358,195.659963 C38.5213017,198.074548 48.1807181,199.369813 57.7963481,199.811176" id="Fill-45" stroke="none" fill="#003151" fill-rule="evenodd" mask="url(#mask-4)"></path>
                </g>
            </g>
            <path d="M955.450377,757.499737 C938.281541,794.430021 905.840357,812.148277 884.484539,804.081174 C857.48111,793.881141 894.976207,774.143702 912.145043,737.213417 C929.313879,700.283133 920.819742,657.44576 946.658493,670.345059 C964.776769,679.390156 972.619811,720.569452 955.450377,757.499737" id="Fill-48" fill="#ED5D40" mask="url(#mask-2)"></path>
            <path d="M543.449805,1029.53921 C535.754961,1035.18143 528.079433,1037.75085 523.099032,1030.80775 C518.119234,1023.86465 522.594413,1016.83307 530.28986,1011.19085 C537.984704,1005.54802 545.985579,1003.43134 550.96598,1010.37505 C555.945777,1017.31816 551.145253,1023.89638 543.449805,1029.53921 Z" id="Fill-50" fill="#FFB200" mask="url(#mask-2)"></path>
            <path d="M583.96596,949.375061 C588.945773,956.318087 584.145233,962.896237 576.450367,968.539009 C568.754896,974.181171 561.079346,976.751171 556.098929,969.807535 C551.119117,962.863898 555.594912,955.833009 563.289779,950.190237 C570.985249,944.548074 578.985544,942.431425 583.96596,949.375061" id="Fill-51" fill="#FFB200" mask="url(#mask-2)"></path>
            <path d="M678.641497,986.465762 C681.368648,989.247908 679.640948,992.541098 676.539683,995.612227 C673.437813,998.683965 670.136174,1000.37102 667.409628,997.588263 C664.682476,994.806117 666.232201,991.331019 669.333465,988.259282 C672.435335,985.188152 675.91495,983.683007 678.641497,986.465762" id="Fill-56" fill="#FFB200" mask="url(#mask-2)"></path>
            <path d="M652.641792,951.465732 C655.368335,954.247879 653.641242,957.541069 650.539376,960.612808 C647.437509,963.683938 644.136479,965.370991 641.40933,962.588235 C638.682787,959.806089 640.231904,956.330991 643.333771,953.259861 C646.435032,950.188122 649.915249,948.682976 652.641792,951.465732" id="Fill-57" fill="#FFB200" mask="url(#mask-2)"></path>
            <path d="M609.641534,991.46529 C612.368661,994.248068 610.640976,997.541286 607.539134,1000.61305 C604.437897,1003.6842 601.136288,1005.37066 598.409766,1002.58849 C595.682639,999.805715 597.231744,996.331197 600.333586,993.260042 C603.435428,990.188278 606.915013,988.68312 609.641534,991.46529" id="Fill-58" fill="#FFB200" mask="url(#mask-2)"></path>
            <path d="M673,803.308585 C611.659327,806.82382 551.753699,848.184816 498.687052,884.830839 C449.301086,918.933416 406.65803,948.381005 379.206037,935.609786 C344.362661,919.389316 307.760005,927.82348 275.462483,935.26786 C256.134407,939.72489 237.881114,943.929974 223.974986,941.476508 C209.474426,938.909067 200.690028,929.269166 195.484237,910.205316 C173.922534,831.208512 203.06776,723.363988 316.772568,660.50727 C364.705477,634.010438 387.894365,605.600023 408.363272,580.534479 C438.355114,543.793077 462.048369,514.772594 550.943109,505.169285 C602.580715,499.590499 643.554556,483.956702 673,458.658409 L673,444 C644.953574,471.665978 603.523402,488.628485 549.778261,494.434621 C456.476311,504.513627 430.30325,536.579647 399.987171,573.708565 C380.142719,598.018273 357.650339,625.570875 311.54276,651.058727 C256.818905,681.307742 216.589607,724.203805 195.202031,775.114722 C176.522428,819.577044 172.919804,868.562381 185.060646,913.048697 C191.335215,936.035693 203.446035,948.812911 222.095617,952.106195 C225.590162,952.72406 229.240821,953 233.023576,953 C246.617476,952.994001 261.910614,949.472768 277.88825,945.78957 C308.486534,938.741104 343.167791,930.744845 374.642714,945.393656 C407.702791,960.786305 452.711569,929.70707 504.829526,893.714905 C556.53318,858.010677 614.877671,817.729446 673,814.124231 L673,803.308585" id="Fill-27" fill="#003151" mask="url(#mask-2)"></path>
            <path d="M468.711223,607.177603 C447.413249,619.870838 434.559988,634.93655 420.955952,650.887139 C405.135629,669.428123 388.780755,688.600647 356.773731,707.14223 C324.47841,725.848303 298.393497,745.004618 279.245741,764.082891 C259.797675,783.461325 248.506025,801.789194 245.695125,818.550219 C243.430789,832.051489 246.704166,844.015932 255.43117,854.107366 C272.026292,873.28169 301.76898,870.184022 330.532657,867.194412 C355.632554,864.583006 379.333007,862.115678 391.147196,874.182175 C398.204478,881.39806 406.511048,885 416.211056,885 C425.370506,885 435.767233,881.788271 447.521361,875.364812 C467.972461,864.192796 491.624865,844.033941 516.658694,822.69245 C563.987526,782.350727 617.370604,736.858231 673,727.913415 L673,716.975525 C647.197378,720.811591 619.767077,732.367813 589.37572,752.178481 C561.092539,770.620411 533.758336,793.912953 509.649462,814.468021 C485.048079,835.437312 461.810103,855.241976 442.338013,865.885708 C422.421464,876.763565 409.015632,876.991688 398.871165,866.624105 C389.423418,856.970907 375.495047,854.281459 360.035096,854.281459 C350.196945,854.281459 339.73415,855.368044 329.409498,856.442623 C303.402665,859.150081 276.512921,861.947587 263.605604,847.035558 C257.08888,839.495498 254.644358,830.514662 256.356124,820.339183 C258.752597,806.045486 269.305485,789.242438 286.879617,771.737012 C305.366691,753.319095 330.706836,734.733087 362.191321,716.489263 C395.801999,697.021981 413.532292,676.236989 429.178435,657.899515 C455.305392,627.276426 477.864668,600.830386 566.726351,589.154699 C611.700754,583.245717 647.365551,573.256938 673,559.423089 L673,547 C648.368586,561.70912 612.18125,572.282614 565.314895,578.44133 C522.9652,584.005726 492.267528,593.136643 468.711223,607.177603" id="Fill-28" fill="#003151" mask="url(#mask-2)"></path>
            <path d="M1066,323 C1066,323 967.018172,387.704475 849.068725,346.264058 C731.11568,304.817634 609.039892,332.094186 604.0908,410.602122 C599.141709,489.110057 797.927515,356.055024 852.36692,437.043739 C906.805127,518.032453 1056.92697,397.291212 1056.92697,397.291212 L1066,323" id="Fill-14" fill="#003151" mask="url(#mask-2)"></path>
            <path d="M639.733812,645.510631 C642.387273,659.059382 624.89866,660.663209 600.854366,665.349019 C576.810071,670.040812 556.004032,679.568026 553.35117,666.019275 C550.697709,652.470524 562.974766,631.393359 593.818855,625.12766 C617.825962,620.250348 637.080351,631.961879 639.733812,645.510631" id="Fill-15" fill="#FF7A57" mask="url(#mask-2)"></path>
            <path d="M457.675926,746.424709 C470.934396,762.198544 461.757723,779.075948 444.828343,793.224419 C427.899565,807.372889 409.628637,813.43652 396.370167,797.656687 C383.111095,781.882851 392.110901,764.789532 409.04028,750.641061 C425.969059,736.492591 444.417456,730.644876 457.675926,746.424709" id="Fill-17" fill="#ED5D40" mask="url(#mask-2)"></path>
            <path d="M960,524.362466 C937.932055,520.282236 915.425516,519.0904 893.285473,520.676923 C867.222107,522.513415 841.705483,528.066546 817.342424,536.303551 C792.961341,544.540555 769.697774,555.436317 747.713944,568.255282 C736.719024,574.672539 726.030521,581.567009 715.702506,588.944073 C710.541503,592.630812 705.464614,596.438946 700.495872,600.382231 C698.008497,602.353276 695.551162,604.361995 693.123869,606.416163 C691.910222,607.447732 690.702583,608.479899 689.506961,609.541967 L687.716531,611.151813 L686.821317,611.981254 C686.514901,612.270691 686.22651,612.543384 685.854004,612.921925 C684.784553,614.013296 684.700439,615.765468 685.709808,616.94953 C686.785268,618.205353 688.677836,618.35665 689.939548,617.287406 L690.101768,617.150462 L690.864803,616.501022 L691.748002,615.785202 L693.550448,614.35775 C694.764094,613.409304 696.001774,612.478201 697.239453,611.550686 C699.726829,609.701038 702.250253,607.89026 704.803717,606.117157 C709.898631,602.569158 715.101691,599.156309 720.376849,595.86964 C730.921157,589.293312 741.777889,583.221107 752.856922,577.653624 C775.014989,566.53002 798.146377,557.445634 821.872571,551.055886 C845.580742,544.660756 869.907751,540.990762 894.114598,540.808966 C916.488959,540.614015 938.707107,543.468919 960,549.326438 L960,524.362466" id="Fill-63" fill="#FFB200" mask="url(#mask-2)"></path>
            <path d="M563.326993,702.901542 L563.747332,702.938862 L564.299777,702.976181 C564.666072,703.005073 565.074401,703.012898 565.464715,703.032762 C566.257354,703.055033 567.055997,703.081518 567.872655,703.071285 C569.499966,703.077304 571.157301,703.011695 572.814636,702.918396 C576.129307,702.725179 579.467996,702.35319 582.794676,701.870447 C589.454041,700.848982 596.083381,699.335746 602.592625,697.364445 C609.095864,695.377495 615.503025,692.980634 621.748056,690.176271 C627.993087,687.377325 634.087997,684.202779 640.032786,680.747736 L644.452346,678.090243 C645.911521,677.18194 647.346678,676.224279 648.793843,675.294307 L650.96159,673.884601 L653.081297,672.404471 C654.492434,671.410694 655.921585,670.44581 657.320712,669.429763 C660.070928,667.341087 662.887197,665.340895 665.54734,663.130028 C666.898428,662.042954 668.255521,660.972733 669.588595,659.873019 L673.527769,656.485391 L675.50336,654.791578 C676.151882,654.217944 676.78239,653.621438 677.418903,653.037572 L681.249989,649.516317 C681.898512,648.937869 682.523015,648.332935 683.135508,647.720177 L684.997008,645.895144 L688.707997,642.241466 L695.955836,634.66144 L699.738884,630.741712 L701.636412,628.783052 C702.260915,628.124547 702.945467,627.523225 703.593989,626.891205 C714.030397,616.780691 725.475617,607.705485 737.70747,599.877466 L742.361219,597.049026 L744.691096,595.636311 L747.069012,594.311477 L751.830848,591.673847 L756.688761,589.216794 L759.114715,587.993082 L761.588708,586.859058 C763.240039,586.109663 764.879359,585.335589 766.542699,584.608465 C769.893398,583.22705 773.220078,581.783636 776.630826,580.564139 C780.011549,579.246527 783.464331,578.14922 786.893093,576.995332 L792.093282,575.43334 C792.957979,575.163076 793.834685,574.925316 794.705386,574.697187 L797.3295,573.998354 C804.331141,572.1667 811.416849,570.670919 818.562605,569.542312 C825.708362,568.413103 832.908162,567.650465 840.137986,567.26704 C843.752898,567.062988 847.37982,566.983534 851.012746,567.002795 C852.826207,567.009416 854.651678,567.052755 856.477148,567.130403 C857.389884,567.164713 858.308624,567.216478 859.227364,567.276069 C860.170123,567.338067 861.040825,567.403075 862.085667,567.511421 C864.481597,567.759413 866.222999,569.90768 865.976801,572.309356 C865.730603,574.689964 863.622905,576.425912 861.256999,576.216443 L861.142907,576.20621 C860.428331,576.142406 859.533611,576.082214 858.704943,576.039477 C857.858261,575.995537 857.011579,575.958218 856.152887,575.93715 C854.447513,575.885987 852.73013,575.866123 851.006742,575.881773 C847.56597,575.906452 844.113188,576.024429 840.660407,576.262791 C833.760849,576.714836 826.879305,577.530443 820.051805,578.696971 C813.23031,579.862897 806.462858,581.379745 799.791484,583.213807 L797.293471,583.913243 C796.458799,584.141372 795.630131,584.37853 794.807469,584.64759 L789.859483,586.201757 C786.592851,587.347218 783.308205,588.431885 780.101622,589.731438 C776.865015,590.932878 773.712475,592.352817 770.529911,593.705941 C768.956644,594.418619 767.407396,595.177645 765.840133,595.910186 L763.498247,597.017726 L761.198394,598.213147 L756.610698,600.608804 L752.10707,603.175407 L749.861261,604.46232 L747.669495,605.834706 L743.273954,608.576469 C731.738662,616.164923 720.977993,624.917497 711.178099,634.651207 C710.565605,635.260354 709.923088,635.836997 709.334614,636.472026 L707.563187,638.359058 L704.008323,642.13011 L696.658402,650.012303 L692.84533,653.861004 L690.929787,655.783548 C690.299279,656.427607 689.656762,657.065044 688.99623,657.677802 L685.045047,661.399497 C684.384514,662.016469 683.735992,662.64548 683.06345,663.253423 L681.02781,665.049563 L676.950526,668.641845 C675.569413,669.811383 674.158276,670.952028 672.759149,672.108324 C669.996924,674.455827 667.066564,676.601083 664.202256,678.829405 C662.749085,679.91648 661.253881,680.953594 659.782696,682.018398 L657.560906,683.604467 L655.297082,685.122519 C653.777858,686.124722 652.276649,687.15341 650.745416,688.13274 L646.097671,691.005722 C633.601605,698.501479 620.30089,704.822281 606.267585,709.260868 C599.253935,711.480161 592.066145,713.223934 584.746248,714.439218 C581.077293,715.018871 577.384318,715.478139 573.637299,715.744189 C571.757785,715.873603 569.878271,715.971114 567.968733,715.989172 C567.013963,716.011443 566.047185,715.995191 565.074401,715.977735 C564.575999,715.960882 564.101617,715.955464 563.585201,715.924164 L562.810577,715.881428 L562.402248,715.851331 L561.909852,715.807993 C558.348983,715.495594 555.712859,712.346931 556.025111,708.776319 C556.337363,705.205105 559.477893,702.563261 563.038761,702.87566 L563.044766,702.876864 L563.326993,702.901542" id="Fill-64" fill="#FFB200" mask="url(#mask-2)"></path>
            <path d="M386.03178,245.793191 C399.262407,251.388 413.609687,254.609818 427.985768,254.686056 C431.576938,254.729278 435.162108,254.517972 438.726277,254.199812 C442.288045,253.833028 445.825813,253.307164 449.321578,252.60181 C456.31311,251.182097 463.118632,249.048626 469.675143,246.4079 C471.144012,245.812401 471.913249,244.160972 471.391224,242.64401 C470.850598,241.076623 469.143517,240.244005 467.576843,240.784277 L467.548642,240.794482 C461.191341,242.987383 454.682232,244.667626 448.09152,245.662326 C444.795564,246.155173 441.483407,246.476334 438.17005,246.650422 C434.854293,246.775284 431.539136,246.8065 428.23658,246.597595 C415.016753,245.852621 402.087341,242.253214 390.191177,236.501126 C378.268613,230.773651 367.326494,223.026761 357.470428,214.102681 C352.539994,209.63824 347.874773,204.870046 343.492165,199.870136 C342.294509,198.497246 341.118453,197.106348 339.963998,195.701043 L339.963998,215.033749 C343.043944,217.931403 346.208494,220.736011 349.483449,223.413356 C360.543173,232.453894 372.761552,240.223595 386.03178,245.793191" id="Fill-39" fill="#003151" mask="url(#mask-2)"></path>
            <path d="M363.671721,320.340418 C368.867367,323.089198 374.171019,325.651884 379.651678,327.83458 C385.125138,330.022078 390.708402,331.962252 396.433273,333.455802 C402.164745,334.922939 408.000021,336.010085 413.8983,336.613388 C419.811581,337.128446 425.764463,337.13685 431.668142,336.590576 C437.571822,335.947653 443.374697,334.661808 448.995763,332.868708 C450.274424,332.457501 451.04426,331.117628 450.719645,329.792163 C450.380629,328.406067 448.982562,327.557841 447.597697,327.897612 L447.511893,327.918622 C442.152439,329.232082 436.707781,330.059297 431.227121,330.288612 C425.739861,330.421279 420.260402,330.04429 414.842745,329.206869 C409.431689,328.279403 404.103436,326.911317 398.879589,325.195655 C393.661142,323.45238 388.576501,321.291895 383.602265,318.906898 C378.62323,316.527303 373.805601,313.783926 369.098978,310.874265 C364.395356,307.954399 359.819539,304.817825 355.379328,301.496357 C350.940918,298.173689 346.635714,294.667329 342.482918,291.00609 C341.635077,290.259916 340.798638,289.502936 339.963998,288.743555 L339.963998,305.559197 C342.763131,307.569006 345.601865,309.520586 348.492202,311.395927 C353.419036,314.590131 358.479675,317.581433 363.671721,320.340418" id="Fill-40" fill="#003151" mask="url(#mask-2)"></path>
            <path d="M453.900976,299.077619 C449.712285,300.119968 445.442661,300.664273 441.174236,300.711133 C436.904012,300.781424 432.640983,300.264755 428.439102,299.362387 C426.337862,298.888975 424.253408,298.311027 422.167755,297.633349 C421.123429,297.296313 420.082701,296.93104 419.016194,296.540535 L415.669797,295.294522 C415.587666,295.264483 415.477358,295.225433 415.392829,295.197797 C411.627383,293.968606 407.580173,296.032878 406.354199,299.807564 C405.128226,303.582249 407.186902,307.6387 410.952948,308.867891 L411.007502,308.885314 C413.148309,309.584018 415.644618,310.42811 418.124741,311.116001 C420.623448,311.815907 423.183304,312.416084 425.775533,312.887093 C430.970182,313.787659 436.29732,314.203998 441.597481,313.903008 C446.895844,313.628453 452.15284,312.728488 457.199414,311.248773 C462.250183,309.773263 467.082136,307.725813 471.629328,305.272237 C476.167527,302.806045 480.48631,300.003417 484.448391,296.832513 C485.473533,296.076735 486.429132,295.248863 487.391926,294.430003 L488.836116,293.202014 C489.319311,292.795287 489.800708,292.386158 490.25213,291.948792 C492.087193,290.228164 493.949833,288.534572 495.659002,286.710011 C502.644351,279.54033 508.740045,271.701384 514.188882,263.530808 C515.616286,261.38423 515.118703,258.462648 513.019261,256.929464 C510.863467,255.354225 507.843197,255.82944 506.272512,257.989836 L506.268915,257.994643 C500.767923,265.559634 494.730379,272.672241 488.069958,278.970193 C486.436326,280.583881 484.683994,282.039565 482.964034,283.530695 C482.540189,283.912189 482.092964,284.260039 481.64454,284.605487 L480.305861,285.65084 C479.415007,286.349544 478.531946,287.058462 477.597929,287.683871 C473.96737,290.360936 470.109001,292.625868 466.155313,294.571787 C462.193831,296.504488 458.090268,298.039475 453.900976,299.077619" id="Fill-41" fill="#003151" mask="url(#mask-2)"></path>
            <path d="M369.337507,266.31263 C367.176657,262.968664 362.709525,261.993819 359.345846,264.138116 C355.973683,266.287247 354.985969,270.75715 357.14076,274.121664 C357.59523,274.831192 368.500678,291.55223 388.956043,296.772758 C389.558972,296.926872 390.162508,297 390.75756,297 C393.988534,297 396.934708,294.827903 397.772143,291.561296 C398.764099,287.693343 396.425096,283.755888 392.547563,282.765934 C377.822754,279.008581 369.484149,266.535038 369.337507,266.31263" id="Fill-42" fill="#003151" mask="url(#mask-2)"></path>
            <path d="M586.178677,170 C615.964688,200.729428 685.408377,241.52711 822.817286,170 L586.178677,170" id="Fill-38" fill="#FF7A57" mask="url(#mask-2)"></path>
        </g>
    </g>
</svg>