<?xml version="1.0" encoding="UTF-8"?>
<svg width="1200px" height="1200px" viewBox="0 0 1200 1200" version="1.1" xmlns="http://www.w3.org/2000/svg" xmlns:xlink="http://www.w3.org/1999/xlink">
    <title>0fee</title>
    <g id="0fee" stroke="none" stroke-width="1" fill="none" fill-rule="evenodd">
        <g id="vecteezy_piggy-bank-mascot-with-crypto-design-illustration_" transform="translate(0.494000, -0.241000)">
            <path d="M1200,599.998307 C1200,931.36962 931.365389,1199.99577 599.998307,1199.99577 C268.628687,1199.99577 0,931.36962 0,599.998307 C0,268.628687 268.628687,0 599.998307,0 C931.365389,0 1200,268.628687 1200,599.998307" id="Fill-3" fill="#69C2C4"></path>
            <g id="编组" transform="translate(150.420505, 170.472730)">
                <path d="M821.562211,509.204484 C819.343696,587.447302 789.144573,656.848216 731.30244,704.89191 C706.673717,725.348863 677.053336,741.947529 642.433261,753.67511 C614.50088,763.160062 583.321109,769.494081 548.910024,772.162729 C549.954976,778.1913 562.084462,854.464785 495.414893,853.889318 C455.61748,853.532366 442.73161,807.924214 438.983446,769.051986 C427.932673,767.717662 416.649599,766.077891 405.135832,764.108557 C365.125409,757.268138 327.356008,745.267262 292.678058,729.062462 C288.38893,750.910005 274.614047,778.657509 231.898805,773.513129 C183.42668,767.661395 182.769968,698.614158 186.63388,658.18254 C109.027679,586.273741 66.9699543,488.345628 82.7728493,390.238265 C110.128898,220.402157 299.786949,93.028894 499.800478,144.901937 C701.360536,197.199392 825.677715,363.848395 821.562211,509.204484" id="Fill-4" fill="#EDA686"></path>
                <path d="M774.51524,647.644597 C774.667964,647.347187 774.820687,647.049778 774.965373,646.752368 C775.02164,646.728254 775.077907,646.712178 775.134173,646.688064 C774.925183,647.009587 774.716192,647.331111 774.51524,647.644597 M808.789678,565.012979 C806.442554,563.606312 803.886439,562.352369 801.145449,561.259189 C802.632497,550.36757 803.532763,539.26696 803.854287,527.973437 C807.969792,382.622974 683.644574,215.969951 482.092554,163.674104 C451.35729,155.702726 420.846288,151.963404 391.151957,151.963404 C325.346484,151.963404 263.459582,170.309552 211.473202,201.601052 C214.882158,199.183997 218.346577,196.82562 221.869674,194.524314 C277.466767,158.203377 342.7996,139.362886 409.303584,139.362886 C438.985858,139.362886 468.891591,143.113461 498.286101,150.73679 C591.33509,174.879209 674.754441,226.480565 733.191393,296.034202 C788.324687,361.653995 817.567277,437.300508 815.541677,509.035685 C814.987049,528.520027 812.720306,547.216636 808.789678,565.012979" id="Fill-5" fill="#F5CAB3"></path>
                <path d="M462.715118,370.205724 C462.715118,370.205724 450.162829,403.310619 472.133354,411.884855 C494.10388,420.458288 515.84532,399.775465 515.84532,399.775465 C515.84532,399.775465 500.453975,370.860025 462.715118,370.205724" id="Fill-6" fill="#D1826A"></path>
                <path d="M59.9583239,177.534996 C37.1687166,181.524302 31.96405,197.110169 30.8427357,202.525433 C28.8951053,211.925182 32.0886405,221.39245 37.9596651,223.629452 C45.6424765,226.55773 55.7310897,223.648744 62.48952,216.555928 C70.1433942,208.522656 71.6690247,197.369799 66.67576,185.957312 C65.1718324,182.518615 62.8536457,179.749491 59.9583239,177.534996 Z M140.071607,254.776267 C139.951839,254.023097 127.4735,179.034904 75.3802132,176.685369 C76.2483275,178.068725 77.0320417,179.546127 77.7217103,181.124005 C84.6537635,196.967894 82.2230436,213.323007 71.2188913,224.872142 C61.0474858,235.549143 45.956766,239.577837 33.6681261,234.89645 C22.1246177,230.499612 15.8348083,215.531071 19.0355778,200.079441 C21.3529606,188.895236 28.63869,177.45783 42.3114898,170.680108 C27.5262177,168.765434 9.84562361,167.857933 0.830899926,169.784664 C0.464362788,169.862634 0.105863746,169.639175 0.0190523182,169.274245 C-0.0613286331,168.936645 0.118724698,168.592615 0.444267551,168.472847 C5.64089605,166.560584 40.2971432,152.072722 62.9396534,164.980295 C66.9474476,164.559903 71.2566704,164.432097 75.8842018,164.637872 C101.801432,165.79375 123.231797,181.649697 137.858719,210.490382 C148.548582,231.571894 151.847416,252.045726 151.982456,252.90741 L140.071607,254.776267 L140.071607,254.776267 Z" id="Fill-7" fill="#3C182E"></path>
                <path d="M631.396956,273.664183 C554.560805,204.522096 445.001568,179.097601 441.106307,178.675601 L398.001218,211.39949 C401.896479,211.82149 513.67423,237.685669 590.515204,306.82856 L631.396956,273.664183" id="Fill-8" fill="#3C182E"></path>
                <polyline id="Fill-9" fill="#3C182E" points="441.842597 53.1342202 478.549362 31.8831043 514.699891 109.161351 441.842597 53.1342202"></polyline>
                <polyline id="Fill-10" fill="#3C182E" points="567.204728 -6.39488462e-14 601.229985 25.3216073 544.529262 89.0669169 567.204728 -6.39488462e-14"></polyline>
                <polyline id="Fill-11" fill="#3C182E" points="877.684191 157.478341 879.026553 199.872058 793.838821 195.119936 877.684191 157.478341"></polyline>
                <polyline id="Fill-12" fill="#3C182E" points="897.666895 297.278499 860.916724 318.458879 824.914096 241.110701 897.666895 297.278499"></polyline>
                <path d="M651.411813,468.953723 C650.013184,467.899125 648.582403,466.881502 647.167699,465.850215 C646.452308,465.351049 645.777108,464.790794 645.013489,464.345483 C644.265946,463.883293 643.502327,463.447628 642.738708,462.999102 C639.756575,461.123011 636.525261,459.683388 633.342175,458.185087 C626.799166,455.538142 619.926594,453.747255 612.997756,452.982028 L610.401452,452.715967 L609.107318,452.587358 L607.813185,452.541541 C606.076956,452.506977 604.348766,452.428203 602.628614,452.469198 L597.484233,452.695872 C595.788195,452.858241 594.092157,453.079289 592.404157,453.273811 C590.724195,453.508523 589.060309,453.83487 587.396423,454.114596 C586.560461,454.23999 585.740576,454.444158 584.92069,454.642699 L582.469071,455.232695 C579.213643,456.054992 576.014481,457.023582 572.903738,458.177049 C566.6501,460.430931 560.693871,463.274809 555.067205,466.594542 C549.464652,469.948036 544.095205,473.676908 539.408995,478.161361 C551.425948,473.551514 563.48309,470.063784 575.524157,468.034969 C587.541109,466.043933 599.566099,465.601034 610.827471,467.786592 C616.446099,468.888615 621.88789,470.504272 627.03227,472.79754 C629.556232,474.057914 632.128423,475.208969 634.499661,476.770771 C635.102518,477.132485 635.697337,477.50706 636.31627,477.85511 C636.935204,478.195925 637.481794,478.658115 638.068575,479.051982 L641.54907,481.513247 C647.609794,486.287875 653.091775,491.946694 658.067356,498.20837 C657.263546,498.280713 656.459737,498.353056 655.647889,498.433437 C653.099813,498.666542 650.559775,499.004142 648.019737,499.365856 C645.479699,499.719532 642.939661,500.145551 640.415699,500.651951 C635.367775,501.624561 630.343966,502.902618 625.448766,504.614732 C623.005185,505.498923 620.593756,506.47957 618.278785,507.66117 C615.971852,508.850808 613.737261,510.233361 611.856347,511.969589 C616.671166,510.313742 621.566366,509.839494 626.461566,509.493856 C631.364804,509.18037 636.27608,509.188408 641.187356,509.268789 C643.638975,509.30898 646.098632,509.413475 648.550251,509.493856 C651.00187,509.598351 653.453489,509.743037 655.905108,509.871646 C658.356727,510.008294 660.808346,510.217284 663.243889,510.370008 C665.663356,510.546846 668.171241,510.747799 670.470137,511.005018 L682.446898,512.307189 L676.635355,500.860942 C670.614822,488.980637 662.255203,477.801254 651.411813,468.953723" id="Fill-13" fill="#3C182E"></path>
                <path d="M793.051087,475.798965 C787.842402,476.249902 782.714097,477.2201 777.706364,478.478062 C775.19044,479.099407 772.706668,479.790683 770.255049,480.564752 L766.573602,481.730275 L762.940383,483.016371 C762.506326,483.169094 762.080307,483.329856 761.654288,483.490618 C761.68644,483.337894 761.710554,483.185171 761.742707,483.032447 C762.715316,478.786725 763.856726,474.628618 765.255354,470.591083 C768.060649,462.521639 771.951088,455.002805 777.031164,448.244375 C778.301183,446.554767 779.651583,444.916603 781.074325,443.325864 C781.757564,442.509194 782.521183,441.75924 783.244611,440.964272 C783.992154,440.191811 784.779887,439.459541 785.543506,438.698333 L787.938859,436.49911 C788.774821,435.803815 789.586668,435.070741 790.446744,434.394737 C792.158859,433.023438 793.903125,431.650531 795.751887,430.403019 C799.393144,427.815556 803.283582,425.47004 807.350858,423.249918 C808.886135,422.417171 810.445525,421.613362 812.02903,420.824021 C813.909944,419.885171 813.098096,417.039686 811.008192,417.238227 C804.344611,417.869217 797.697106,419.446291 791.274668,421.934886 C788.951659,422.851229 786.660802,423.890554 784.410135,425.043217 C783.284802,425.62196 782.199659,426.26983 781.082364,426.88796 C779.997221,427.547084 778.912078,428.210227 777.843011,428.911148 C776.806097,429.652261 775.73703,430.37167 774.716192,431.143327 C773.71143,431.938295 772.666478,432.697895 771.68583,433.536268 C769.732573,435.208996 767.835583,436.972554 766.059164,438.861506 C758.929373,446.392398 753.527773,455.574314 750.119621,465.227262 C748.399469,470.05655 747.137488,474.998371 746.229183,479.961894 C745.344993,484.929437 744.910936,489.921094 744.693907,494.880599 L744.115164,508.706123 L755.601602,502.002351 L758.680192,500.201818 L761.85524,498.393247 L768.253564,494.800218 L774.700116,491.28757 C776.870402,490.154199 779.024611,488.988675 781.202935,487.87138 C785.567621,485.644828 789.956421,483.474542 794.457754,481.537361 C798.975163,479.641978 803.532763,477.822957 808.596763,477.022363 C806.16122,476.163894 803.516687,475.773243 800.912344,475.637399 C798.283887,475.495125 795.65543,475.577114 793.051087,475.798965" id="Fill-14" fill="#3C182E"></path>
                <path d="M463.576802,365.142528 C463.576802,365.142528 511.875304,363.210974 518.63695,402.815473 C518.63695,402.815473 496.902745,376.225454 467.440715,379.619138 C467.440715,379.619138 459.71289,369.48953 463.576802,365.142528" id="Fill-15" fill="#3C182E"></path>
                <path d="M103.265169,379.087016 C88.9734359,467.787396 123.029237,555.238655 186.844478,624.543112 C185.776216,625.379073 184.95633,627.107264 184.779492,627.975378 C184.691073,628.425511 182.697625,638.312368 181.106082,652.941702 C107.043074,581.563417 67.35096,485.982428 82.7760645,390.23505 C97.9680643,295.916845 163.213282,214.691894 252.500443,170.000085 C173.807492,216.331666 117.275569,292.146979 103.265169,379.087016" id="Fill-16" fill="#D1826A"></path>
                <path d="M597.363661,655.417435 C597.363661,655.417435 629.725032,707.576634 696.376917,668.937511 C696.376917,668.937511 619.580956,742.839758 597.363661,655.417435" id="Fill-17" fill="#3C182E"></path>
                <path d="M778.791506,350.884555 C759.725145,317.307824 734.573945,285.237432 704.029184,256.413627 C709.880917,255.330896 777.457183,243.391913 797.785525,263.715433 C797.785525,263.715433 811.321677,311.917478 778.791506,350.884555" id="Fill-18" fill="#D1826A"></path>
                <path d="M587.219585,598.194236 C587.219585,607.124559 570.355662,614.358845 549.545033,614.358845 C528.742443,614.358845 511.875304,607.124559 511.875304,598.194236 C511.875304,589.263912 528.742443,582.021588 549.545033,582.021588 C570.355662,582.021588 587.219585,589.263912 587.219585,598.194236" id="Fill-19" fill="#E67761"></path>
                <path d="M432.859222,768.280329 C423.768136,767.098729 414.524327,765.716176 405.135832,764.100519 C365.122194,757.268138 327.359223,745.267262 292.674843,729.062462 C288.390538,750.910005 274.613243,778.649471 231.898805,773.513129 C227.453739,772.974576 223.410577,771.905509 219.737167,770.370233 C220.78212,770.603338 221.851186,770.780176 222.952405,770.916824 C265.666843,776.053167 276.807643,713.581091 275.467692,679.282539 C310.216378,704.144368 347.006739,729.118729 405.135832,733.531643 C414.185923,734.22292 422.891984,736.401243 431.55705,737.542653 C431.532936,746.328291 431.822307,756.970729 432.859222,768.280329" id="Fill-20" fill="#D1826A"></path>
                <path d="M792.761716,268.855794 C782.689983,263.737939 768.028497,262.133535 753.608154,262.133535 C741.551012,262.133535 729.654631,263.255654 720.740383,264.384202 C719.462326,263.074796 718.168193,261.772625 716.87406,260.476884 C727.219088,259.071825 739.549526,257.980252 751.413754,257.980252 C768.341983,257.980252 784.34583,260.204393 792.359811,266.917006 C792.472344,267.44109 792.61703,268.091372 792.761716,268.855794" id="Fill-21" fill="#E4B3A2"></path>
                <path d="M815.541677,509.035685 C813.291011,588.130541 782.834668,654.251911 727.452193,700.25393 C702.823469,720.710882 673.564803,736.762958 640.49608,747.968062 C612.507433,757.469091 581.536652,763.586081 548.443814,766.150233 L541.8365,766.664671 L542.969872,773.191605 C543.669186,777.234767 549.311929,813.309738 532.00591,833.694347 C524.016847,843.09088 511.959704,847.85747 496.157613,847.85747 C495.928527,847.85747 495.697834,847.85747 495.467141,847.85747 C460.039237,847.543985 448.459557,804.516061 444.984688,768.473243 L444.983081,768.457167 C442.293534,740.50871 444.444528,715.783529 444.466231,715.534348 C444.762837,712.222653 442.316041,709.288748 439.000326,708.991339 C435.672555,708.693929 432.754726,711.13751 432.458121,714.457244 C432.371309,715.413777 430.545858,736.336939 432.36086,762.131186 C423.689363,760.989776 414.906136,759.663491 406.151043,758.168405 C369.00379,751.810272 333.119322,740.822196 299.401121,725.509624 C301.148603,713.661472 300.421959,704.457853 300.385787,704.023796 C300.109277,700.712101 297.201898,698.252444 293.886184,698.517701 C290.571273,698.790996 288.101166,701.700787 288.369639,705.02052 C288.376873,705.125015 289.180683,715.590615 286.76202,727.896939 L286.761216,727.904977 C280.889388,757.814729 262.669437,771.149929 232.62143,767.532786 C189.286452,762.299986 188.968143,697.127111 192.634318,658.753244 L192.640749,658.680902 C194.211393,642.234959 196.575396,630.49934 196.598707,630.378769 C197.261046,627.12334 195.154261,623.940254 191.891598,623.273092 C188.634562,622.613969 185.447457,624.711911 184.783511,627.975378 C184.707953,628.353169 183.363983,635.008711 182.007957,645.410006 C108.248788,572.697398 74.3127542,480.664424 88.7242549,391.19721 C101.273329,313.287973 149.803328,241.603437 221.869674,194.524314 C302.28117,141.99295 403.032262,126.032509 498.286101,150.73679 C591.33509,174.879209 674.754441,226.480565 733.191393,296.034202 C788.324687,361.653995 817.567277,437.300508 815.541677,509.035685 M792.359811,266.917006 C794.079963,274.619912 800.164801,309.219893 779.442592,339.985702 C768.727811,322.153992 756.373259,304.87691 742.427164,288.278244 C734.348879,278.66227 725.812421,269.398366 716.87406,260.476884 C741.993107,257.067928 778.73524,255.500499 792.359811,266.917006 M806.997182,396.145461 C801.129373,380.943816 794.120154,366.028326 786.049906,351.452045 C816.884039,311.198068 804.159735,264.122964 803.58903,262.085307 L803.163011,260.567715 L802.045716,259.452831 C781.516421,238.928359 723.66625,246.920637 705.958327,249.946979 C685.533527,230.92322 663.115279,213.654176 638.912575,198.350447 C596.929604,171.810264 550.638214,151.863731 501.314051,139.06628 C450.424871,125.868532 398.900681,123.6042 348.177086,132.335983 C300.9581,140.464105 255.001898,158.47828 215.276025,184.430074 C140.373839,233.361174 89.9090701,308.026236 76.8206398,389.27932 C68.9232114,438.304466 74.7283237,487.758847 94.0752148,536.268751 C112.099036,581.458922 141.903488,624.38235 180.360951,660.569854 C174.067926,732.57511 192.063614,774.775109 231.178592,779.501509 C234.986238,779.959681 238.579266,780.176709 241.97938,780.176709 C277.555989,780.176709 291.42733,756.440214 296.824911,737.582843 C330.78104,752.766805 366.839131,763.6745 404.119013,770.04871 C413.93433,771.728671 423.790643,773.207681 433.489408,774.445548 C439.851561,830.09328 461.190292,859.617204 495.361842,859.914613 C495.632726,859.914613 495.900394,859.914613 496.16967,859.914613 C515.665266,859.914613 530.811449,853.717242 541.193453,841.499337 C558.073452,821.61309 557.269643,791.671185 555.750443,777.636671 C587.45269,774.726881 617.241871,768.593814 644.370442,759.382157 C678.837794,747.710843 709.382555,730.935339 735.152688,709.529891 C764.290783,685.327187 787.04663,655.497816 802.777182,620.869702 C818.097792,587.157931 826.449373,549.644141 827.590782,509.381323 C828.635734,472.390813 821.706896,434.294261 806.997182,396.145461" id="Fill-22" fill="#3C182E"></path>
                <path d="M698.788346,802.241281 C665.446327,811.227871 646.379965,764.534576 642.433261,753.67511 C677.053336,741.947529 706.673717,725.348863 731.30244,704.89191 C743.592688,736.425358 733.955012,792.780443 698.788346,802.241281" id="Fill-23" fill="#D1826A"></path>
                <path d="M650.342746,757.292253 C655.945299,770.522957 669.859241,797.321966 690.589489,797.321966 C692.727622,797.321966 694.938098,797.040633 697.220917,796.4217 C709.929146,792.997471 717.54926,782.491681 721.704955,774.276748 C730.281602,757.300291 732.668917,733.732596 728.18366,715.116367 C705.484079,732.671567 679.36027,746.826653 650.342746,757.292253 Z M690.428727,809.411261 C677.607965,809.411261 665.462403,802.53869 654.860156,789.139185 C644.917032,776.591719 638.896499,761.592633 636.766404,755.732862 L634.668461,749.937396 L640.504118,747.968062 C673.564803,736.762958 702.823469,720.710882 727.452193,700.25393 L733.882669,694.908596 L736.921069,702.705549 C745.618288,725.019301 743.737374,757.404786 732.459926,779.7105 C724.912155,794.637243 713.811545,804.443719 700.355774,808.060861 C697.011927,808.961128 693.700231,809.411261 690.428727,809.411261 L690.428727,809.411261 Z" id="Fill-24" fill="#3C182E"></path>
                <path d="M824.914096,585.759303 C830.709563,610.910502 803.25143,640.972978 762.86804,650.273054 C722.492688,659.57313 685.059279,646.728254 679.271851,621.585092 C673.476384,596.433893 701.51326,568.50955 741.89665,559.209474 C782.272002,549.909398 819.126668,560.616141 824.914096,585.759303" id="Fill-25" fill="#E5745D"></path>
                <path d="M825.637525,590.79115 C825.53303,589.10315 825.299925,587.423188 824.914096,585.759303 C824.648839,584.601817 824.319277,583.476483 823.925411,582.383303 C824.319277,583.476483 824.648839,584.601817 824.914096,585.759303 C825.299925,587.423188 825.53303,589.10315 825.637525,590.79115" id="Fill-26" fill="#9DD4D3"></path>
                <path d="M802.11002,632.139111 C812.358592,621.110845 817.293982,608.314197 814.60122,596.634845 C810.469639,578.661665 789.458059,568.525627 762.956459,568.525627 C754.55665,568.525627 745.61025,569.538427 736.470936,571.644407 C707.115812,578.404445 684.697565,595.614007 678.524308,614.005169 C679.183432,591.056407 705.532307,567.585169 741.89665,559.209474 C751.606669,556.974884 761.115735,555.897779 770.029983,555.897779 C796.49943,555.897779 817.792344,565.398808 823.925411,582.383303 C824.319277,583.476483 824.648839,584.601817 824.914096,585.759303 C825.299925,587.423188 825.53303,589.10315 825.637525,590.79115 C825.637525,590.807226 825.637525,590.823302 825.637525,590.839379 C825.637525,590.847417 825.637525,590.863493 825.637525,590.871531 C825.637525,590.887607 825.637525,590.911721 825.645563,590.927798 C825.645563,590.935836 825.645563,590.943874 825.645563,590.951912 C826.393106,605.163264 817.406515,620.339188 802.11002,632.139111" id="Fill-27" fill="#EFAA99"></path>
                <path d="M770.070173,561.910274 C761.509602,561.910274 752.442631,562.971303 743.24705,565.085322 C724.799622,569.337474 708.562669,577.729245 697.526365,588.72536 C687.221527,598.981969 682.824689,610.170997 685.147698,620.226654 C687.46267,630.29035 696.312612,638.424902 710.057755,643.143264 C724.791583,648.207264 743.070212,648.649359 761.51764,644.405245 C779.699811,640.217397 795.792078,631.479988 806.828382,619.816712 C816.92423,609.150159 821.369296,597.229664 819.038249,587.117741 C816.771506,577.263036 808.090363,569.52235 794.586363,565.326465 C787.263659,563.051684 778.94423,561.910274 770.070173,561.910274 Z M736.824612,659.340025 C725.868688,659.340025 715.427203,657.740444 706.143203,654.549321 C688.314708,648.43233 676.683584,637.203111 673.396003,622.935492 C670.108422,608.667874 675.654708,593.49195 689.014022,580.180864 C701.633831,567.617322 719.928536,558.084141 740.54625,553.333627 C761.316688,548.55096 781.781678,548.71976 798.163316,553.807874 C815.935544,559.330046 827.518439,570.19755 830.789944,584.408903 C834.045372,598.531836 828.499087,614.455302 815.589906,628.103988 C802.929906,641.479378 784.691468,651.438578 764.226478,656.148902 C754.982669,658.278997 745.730821,659.340025 736.824612,659.340025 L736.824612,659.340025 Z" id="Fill-28" fill="#3C182E"></path>
                <path d="M514.703106,323.608083 C436.050345,320.584956 416.855374,351.235016 416.855374,351.235016 C398.39187,396.007206 416.220365,438.343049 416.710689,439.500535 C415.802384,438.077792 379.510384,380.991241 397.998003,336.163588 C397.998003,336.163588 437.834803,310.079969 514.703106,323.608083" id="Fill-29" fill="#3C182E"></path>
                <path d="M540.767434,817.312709 C538.878481,823.228747 536.073186,828.887566 531.997872,833.686309 C524.019259,843.09088 511.962116,847.85747 496.159221,847.85747 C495.926116,847.85747 495.701049,847.85747 495.467945,847.849432 C460.036021,847.543985 448.461164,804.516061 444.980669,768.473243 L444.980669,768.457167 C444.707374,765.563452 444.474269,762.709929 444.297431,759.912672 C449.377507,795.907262 463.33164,833.46928 499.438764,833.782766 C519.58223,833.959604 532.536424,827.119185 540.767434,817.312709" id="Fill-30" fill="#D1826A"></path>
                <path d="M744.316116,606.32075 C745.361069,612.630655 744.13124,618.088521 741.567088,618.51454 C739.010974,618.932521 736.093145,614.157893 735.056231,607.847988 C734.011279,601.538083 735.249145,596.080217 737.805259,595.662236 C740.361374,595.236217 743.279202,600.010845 744.316116,606.32075" id="Fill-31" fill="#3C182E"></path>
                <path d="M778.22884,598.081702 C779.265754,604.391607 778.035926,609.849474 775.479811,610.275493 C772.923697,610.693474 770.005869,605.918845 768.968954,599.60894 C767.924002,593.299036 769.15383,587.841169 771.717983,587.423188 C774.274097,586.997169 777.191926,591.771798 778.22884,598.081702" id="Fill-32" fill="#3C182E"></path>
                <path d="M678.138479,683.229244 C660.205489,698.64631 621.429718,723.974348 603.890595,673.856825 C622.313909,711.796634 656.877718,697.344139 678.138479,683.229244" id="Fill-33" fill="#D1826A"></path>
            </g>
        </g>
    </g>
</svg>