<?xml version="1.0" encoding="UTF-8"?>
<svg width="1200px" height="1200px" viewBox="0 0 1200 1200" version="1.1" xmlns="http://www.w3.org/2000/svg" xmlns:xlink="http://www.w3.org/1999/xlink">
    <title>Applications</title>
    <g id="Applications" stroke="none" stroke-width="1" fill="none" fill-rule="evenodd">
        <g id="MuseX-logo-RoundBG" fill-rule="nonzero">
            <circle id="RoundBG" fill="#EDFF58" cx="600" cy="600" r="600"></circle>
            <path d="M794.958831,100.562705 C848.074712,118.766289 986.018488,194.875498 1017.19355,412.367384 C1023.49506,456.329609 1029.67463,525.26841 986.990405,629.070784 C950.894616,732.138824 862.632852,817.402204 851.516467,862.649633 C844.764261,920.873809 873.881791,998.39182 938.869056,1095.20367 C842.451155,1161.31967 725.742715,1200 600,1200 C554.734813,1200 510.640355,1194.98751 468.241409,1185.48733 L468.247417,1185.47039 C477.743463,1129.56909 479.225079,1086.90121 472.692265,1057.46676 C463.651376,1016.73185 437.761549,987.880736 410.660111,972.135933 C392.098175,961.352225 245.06741,998.882067 215.646328,952.710919 C210.509467,944.649531 205.255273,934.172532 210.509467,873.560233 C211.468158,862.500796 190.25654,846.66701 190.25654,823.809593 C190.25654,814.949649 197.007516,808.770116 210.509467,805.270997 C214.221995,795.541752 181.957484,802.559942 181.957484,777.005659 C181.957484,770.219211 185.815156,762.454045 197.394638,738.378949 C198.866416,735.318951 200.876745,729.511 203.425623,720.955097 C185.912603,711.407518 173.718272,704.701547 166.84263,700.837183 C139.527738,685.485208 126.742409,671.16269 130.484081,649.873979 C138.000396,626.399955 197.286607,579.745088 226.114535,520.872169 C247.895614,476.390456 163.252231,357.659678 309.718703,185.053758 C456.185175,12.4478373 741.842951,82.35912 794.958831,100.562705 Z" id="Shap" fill="#000000"></path>
        </g>
    </g>
</svg>