<?xml version="1.0" encoding="UTF-8"?>
<svg width="1200px" height="1200px" viewBox="0 0 1200 1200" version="1.1" xmlns="http://www.w3.org/2000/svg" xmlns:xlink="http://www.w3.org/1999/xlink">
    <title>Multichain</title>
    <g id="Multichain" stroke="none" stroke-width="1" fill="none" fill-rule="evenodd">
        <circle id="椭圆形备份-4" fill="#262134" cx="600" cy="599" r="600"></circle>
        <g id="Blockchain_technology_concept" transform="translate(150.297500, 116.417000)">
            <polyline id="Fill-3" fill="#6EC7E3" points="183.0825 190.673 172.8525 173.487 315.5625 88.535 325.7925 105.721 183.0825 190.673"></polyline>
            <polyline id="Fill-4" fill="#6EC7E3" points="320.7025 449.939 244.2125 404.406 254.4425 387.221 320.6625 426.64 457.8425 344.334 468.1325 361.483 320.7025 449.939"></polyline>
            <path d="M476.9825,334.24 C471.7025,334.24 466.4225,335.39 462.5825,337.691 C459.7425,339.398 458.7325,341.123 458.7325,342.08 C458.7325,343.038 459.7425,344.762 462.5825,346.469 C470.2525,351.071 483.7125,351.071 491.3825,346.469 C494.2325,344.762 495.2425,343.038 495.2425,342.08 C495.2425,341.123 494.2325,339.398 491.3825,337.691 C487.5425,335.39 482.2625,334.24 476.9825,334.24 Z M476.9825,365.398 C468.9325,365.398 460.8825,363.516 454.6125,359.753 C447.3825,355.415 443.2325,348.974 443.2325,342.08 C443.2325,335.187 447.3825,328.745 454.6125,324.407 C467.1525,316.881 486.8125,316.881 499.3525,324.407 C506.5825,328.745 510.7325,335.187 510.7325,342.08 C510.7325,348.974 506.5825,355.415 499.3525,359.753 C493.0825,363.516 485.0325,365.398 476.9825,365.398 L476.9825,365.398 Z" id="Fill-5" fill="#6EC7E3"></path>
            <path d="M620.9825,526.239 C615.7025,526.239 610.4225,527.39 606.5825,529.691 C603.7425,531.398 602.7325,533.123 602.7325,534.08 C602.7325,535.038 603.7425,536.762 606.5825,538.469 C614.2525,543.071 627.7125,543.071 635.3825,538.469 C638.2225,536.762 639.2325,535.038 639.2325,534.08 C639.2325,533.123 638.2225,531.398 635.3825,529.691 C631.5525,527.39 626.2625,526.239 620.9825,526.239 Z M620.9825,557.398 C612.9325,557.398 604.8825,555.516 598.6125,551.753 C591.3825,547.415 587.2325,540.974 587.2325,534.08 C587.2325,527.187 591.3825,520.745 598.6125,516.407 C611.1525,508.881 630.8125,508.881 643.3525,516.407 C650.5825,520.745 654.7325,527.187 654.7325,534.08 C654.7325,540.974 650.5825,547.415 643.3525,551.753 C637.0825,555.516 629.0325,557.398 620.9825,557.398 L620.9825,557.398 Z" id="Fill-6" fill="#5D4388"></path>
            <path d="M158.9825,184.24 C153.7025,184.24 148.4225,185.39 144.5825,187.691 C141.7425,189.398 140.7325,191.123 140.7325,192.08 C140.7325,193.038 141.7425,194.762 144.5825,196.469 C152.2525,201.071 165.7125,201.071 173.3825,196.469 C176.2325,194.762 177.2425,193.038 177.2425,192.08 C177.2425,191.123 176.2325,189.398 173.3825,187.691 C169.5425,185.39 164.2625,184.24 158.9825,184.24 Z M158.9825,215.398 C150.9325,215.398 142.8825,213.516 136.6125,209.753 C129.3825,205.415 125.2325,198.974 125.2325,192.08 C125.2325,185.187 129.3825,178.745 136.6125,174.407 C149.1525,166.881 168.8125,166.881 181.3525,174.407 C188.5825,178.745 192.7325,185.187 192.7325,192.08 C192.7325,198.974 188.5825,205.415 181.3525,209.753 C175.0825,213.516 167.0325,215.398 158.9825,215.398 L158.9825,215.398 Z" id="Fill-7" fill="#6EC7E3"></path>
            <path d="M370.9825,57.24 C365.7025,57.24 360.4225,58.39 356.5825,60.691 C353.7425,62.398 352.7325,64.123 352.7325,65.08 C352.7325,66.038 353.7425,67.762 356.5825,69.469 C364.2525,74.071 377.7125,74.071 385.3825,69.469 C388.2325,67.762 389.2425,66.038 389.2425,65.08 C389.2425,64.123 388.2325,62.398 385.3825,60.691 C381.5425,58.39 376.2625,57.24 370.9825,57.24 Z M370.9825,88.398 C362.9325,88.398 354.8825,86.516 348.6125,82.753 C341.3825,78.415 337.2325,71.974 337.2325,65.08 C337.2325,58.187 341.3825,51.745 348.6125,47.407 C361.1525,39.881 380.8125,39.881 393.3525,47.407 C400.5825,51.745 404.7325,58.187 404.7325,65.08 C404.7325,71.974 400.5825,78.415 393.3525,82.753 C387.0825,86.516 379.0325,88.398 370.9825,88.398 L370.9825,88.398 Z" id="Fill-8" fill="#6EC7E3"></path>
            <path d="M834.9825,226.239 C829.7025,226.239 824.4225,227.39 820.5825,229.691 C817.7425,231.398 816.7325,233.123 816.7325,234.08 C816.7325,235.038 817.7425,236.762 820.5825,238.469 C828.2525,243.071 841.7125,243.071 849.3825,238.469 C852.2225,236.762 853.2325,235.038 853.2325,234.08 C853.2325,233.123 852.2225,231.398 849.3825,229.691 C845.5525,227.39 840.2625,226.239 834.9825,226.239 Z M834.9825,257.398 C826.9325,257.398 818.8825,255.516 812.6125,251.753 C805.3825,247.415 801.2325,240.974 801.2325,234.08 C801.2325,227.187 805.3825,220.745 812.6125,216.407 C825.1525,208.881 844.8125,208.881 857.3525,216.407 C864.5825,220.745 868.7325,227.187 868.7325,234.08 C868.7325,240.974 864.5825,247.415 857.3525,251.753 C851.0825,255.516 843.0325,257.398 834.9825,257.398 L834.9825,257.398 Z" id="Fill-9" fill="#6EC7E3"></path>
            <path d="M234.9825,378.24 C229.7025,378.24 224.4225,379.39 220.5825,381.691 C217.7425,383.398 216.7325,385.123 216.7325,386.08 C216.7325,387.038 217.7425,388.762 220.5825,390.469 C228.2525,395.071 241.7125,395.071 249.3825,390.469 C252.2325,388.762 253.2425,387.038 253.2425,386.08 C253.2425,385.123 252.2325,383.398 249.3825,381.691 C245.5425,379.39 240.2625,378.24 234.9825,378.24 Z M234.9825,409.398 C226.9325,409.398 218.8825,407.516 212.6125,403.753 C205.3825,399.415 201.2325,392.974 201.2325,386.08 C201.2325,379.187 205.3825,372.745 212.6125,368.407 C225.1525,360.881 244.8125,360.881 257.3525,368.407 C264.5825,372.745 268.7325,379.187 268.7325,386.08 C268.7325,392.974 264.5825,399.415 257.3525,403.753 C251.0825,407.516 243.0325,409.398 234.9825,409.398 L234.9825,409.398 Z" id="Fill-10" fill="#6EC7E3"></path>
            <path d="M300.7225,496.392 C300.5525,496.392 300.3925,496.412 300.2625,496.448 C299.3325,496.696 297.9325,498.117 297.0125,501.307 C294.5525,509.908 298.0425,522.907 304.4725,529.125 C306.8525,531.432 308.7825,531.961 309.7125,531.712 C310.6325,531.464 312.0325,530.043 312.9525,526.853 C315.4125,518.252 311.9225,505.253 305.4925,499.035 C303.4625,497.065 301.7525,496.392 300.7225,496.392 Z M309.2525,547.262 C303.9125,547.262 298.4325,544.833 293.7025,540.262 C283.1825,530.094 278.1025,511.111 282.1225,497.046 C284.4425,488.94 289.5925,483.268 296.2525,481.484 C302.9125,479.701 310.2025,482.038 316.2625,487.898 C326.7825,498.066 331.8625,517.049 327.8425,531.114 C325.5225,539.22 320.3725,544.892 313.7125,546.676 C312.2525,547.068 310.7525,547.262 309.2525,547.262 L309.2525,547.262 Z" id="Fill-11" fill="#6EC7E3"></path>
            <path d="M453.7225,485.392 C453.5525,485.392 453.3925,485.412 453.2625,485.448 C452.3325,485.696 450.9325,487.117 450.0125,490.307 C447.5525,498.908 451.0425,511.907 457.4725,518.125 C459.8525,520.433 461.7825,520.96 462.7125,520.712 C463.6325,520.464 465.0325,519.043 465.9525,515.853 C468.4125,507.252 464.9225,494.253 458.4925,488.035 C456.4625,486.065 454.7525,485.392 453.7225,485.392 Z M462.2525,536.262 C456.9125,536.262 451.4325,533.833 446.7025,529.262 C436.1825,519.094 431.1025,500.111 435.1225,486.046 C437.4425,477.94 442.5925,472.268 449.2525,470.484 C455.9125,468.7 463.2025,471.038 469.2625,476.898 C479.7825,487.066 484.8625,506.049 480.8425,520.114 C478.5225,528.22 473.3725,533.892 466.7125,535.676 C465.2525,536.068 463.7525,536.262 462.2525,536.262 L462.2525,536.262 Z" id="Fill-12" fill="#6EC7E3"></path>
            <path d="M592.2425,599.392 C591.2125,599.392 589.5125,600.065 587.4725,602.033 C581.0425,608.253 577.5525,621.253 580.0125,629.853 C580.9325,633.043 582.3325,634.463 583.2625,634.713 C584.1825,634.963 586.1125,634.433 588.4925,632.123 C594.9225,625.903 598.4125,612.903 595.9525,604.303 C595.0325,601.113 593.6325,599.696 592.7125,599.448 C592.5725,599.412 592.4125,599.392 592.2425,599.392 Z M583.7125,650.263 C582.2125,650.263 580.7125,650.073 579.2525,649.673 C572.5925,647.893 567.4425,642.223 565.1225,634.113 C561.1025,620.053 566.1825,601.063 576.7025,590.898 C582.7625,585.038 590.0625,582.698 596.7125,584.484 C603.3725,586.268 608.5225,591.94 610.8425,600.046 C614.8625,614.113 609.7825,633.093 599.2625,643.263 C594.5325,647.833 589.0525,650.263 583.7125,650.263 L583.7125,650.263 Z" id="Fill-13" fill="#6EC7E3"></path>
            <path d="M822.2425,399.392 C821.2125,399.392 819.5125,400.065 817.4725,402.035 C811.0425,408.253 807.5525,421.252 810.0125,429.853 C810.9325,433.043 812.3325,434.464 813.2625,434.712 C814.1825,434.959 816.1125,434.431 818.4925,432.125 C824.9225,425.907 828.4125,412.908 825.9525,404.307 C825.0325,401.117 823.6325,399.696 822.7125,399.448 C822.5725,399.412 822.4125,399.392 822.2425,399.392 Z M813.7125,450.262 C812.2125,450.262 810.7125,450.069 809.2525,449.676 C802.5925,447.892 797.4425,442.22 795.1225,434.114 C791.1025,420.049 796.1825,401.067 806.7025,390.898 C812.7625,385.038 820.0625,382.699 826.7125,384.484 C833.3725,386.268 838.5225,391.94 840.8425,400.046 C844.8625,414.111 839.7825,433.093 829.2625,443.262 C824.5325,447.833 819.0525,450.262 813.7125,450.262 L813.7125,450.262 Z" id="Fill-14" fill="#5D4388"></path>
            <path d="M315.7225,655.393 C315.5525,655.393 315.3925,655.413 315.2625,655.453 C314.3325,655.693 312.9325,657.113 312.0125,660.303 C309.5525,668.913 313.0425,681.903 319.4725,688.123 C321.8525,690.433 323.7825,690.963 324.7125,690.713 C325.6325,690.463 327.0325,689.043 327.9525,685.853 C330.4125,677.253 326.9225,664.253 320.4925,658.033 C318.4625,656.063 316.7525,655.393 315.7225,655.393 Z M324.2525,706.263 C318.9125,706.263 313.4325,703.833 308.7025,699.263 C298.1825,689.093 293.1025,670.113 297.1225,656.043 C299.4425,647.943 304.5925,642.273 311.2525,640.483 C317.9025,638.703 325.2025,641.033 331.2625,646.903 C341.7825,657.063 346.8625,676.053 342.8425,690.113 C340.5225,698.223 335.3725,703.893 328.7225,705.673 C327.2525,706.073 325.7625,706.263 324.2525,706.263 L324.2525,706.263 Z" id="Fill-15" fill="#6EC7E3"></path>
            <path d="M10.5225,252.807 C-3.5075,261.228 -3.5075,274.932 10.5225,283.354 C24.5625,291.775 47.4025,291.775 61.4425,283.354 C75.4725,274.932 75.4725,261.228 61.4425,252.807 C47.4025,244.385 24.5625,244.385 10.5225,252.807" id="Fill-16" fill="#6EC7E3"></path>
            <path d="M454.8225,240.539 C466.5825,229.16 479.8225,232.707 484.3225,248.445 C488.8225,264.183 482.9125,286.243 471.1525,297.622 C459.3825,309 446.1425,305.453 441.6425,289.715 C437.1425,273.977 443.0525,251.917 454.8225,240.539" id="Fill-17" fill="#5D4388"></path>
            <path d="M185.1525,750.543 C173.3825,739.163 160.1425,742.703 155.6425,758.443 C151.1425,774.183 157.0525,796.243 168.8225,807.623 C180.5825,819.003 193.8225,815.453 198.3225,799.713 C202.8225,783.973 196.9125,761.913 185.1525,750.543" id="Fill-18" fill="#6EC7E3"></path>
            <path d="M613.1525,153.539 C601.3825,142.16 588.1425,145.707 583.6425,161.445 C579.1425,177.183 585.0525,199.243 596.8225,210.622 C608.5825,222 621.8225,218.453 626.3225,202.715 C630.8225,186.977 624.9125,164.917 613.1525,153.539" id="Fill-19" fill="#6EC7E3"></path>
            <path d="M650.5225,209.807 C636.4925,218.228 636.4925,231.932 650.5225,240.354 C664.5625,248.775 687.4025,248.775 701.4425,240.354 C715.4725,231.932 715.4725,218.228 701.4425,209.807 C687.4025,201.385 664.5625,201.385 650.5225,209.807" id="Fill-20" fill="#6EC7E3"></path>
            <path d="M646.5225,376.807 C632.4925,385.228 632.4925,398.932 646.5225,407.354 C660.5625,415.775 683.4025,415.775 697.4425,407.354 C711.4725,398.932 711.4725,385.228 697.4425,376.807 C683.4025,368.385 660.5625,368.385 646.5225,376.807" id="Fill-21" fill="#6EC7E3"></path>
            <path d="M508.5225,465.807 C494.4925,474.228 494.4925,487.932 508.5225,496.354 C522.5625,504.775 545.4025,504.775 559.4425,496.354 C573.4725,487.932 573.4725,474.228 559.4425,465.807 C545.4025,457.385 522.5625,457.385 508.5225,465.807" id="Fill-22" fill="#5D4388"></path>
            <path d="M722.5225,593.807 C708.4925,602.233 708.4925,615.933 722.5225,624.353 C736.5625,632.773 759.4025,632.773 773.4425,624.353 C787.4725,615.933 787.4725,602.233 773.4425,593.807 C759.4025,585.385 736.5625,585.385 722.5225,593.807" id="Fill-23" fill="#5D4388"></path>
            <path d="M223.5225,550.807 C209.4925,559.228 209.4925,572.932 223.5225,581.354 C237.5625,589.775 260.4025,589.775 274.4425,581.354 C288.4725,572.932 288.4725,559.228 274.4425,550.807 C260.4025,542.385 237.5625,542.385 223.5225,550.807" id="Fill-24" fill="#5D4388"></path>
            <path d="M365.5225,721.803 C351.4925,730.233 351.4925,743.933 365.5225,752.353 C379.5625,760.773 402.4025,760.773 416.4425,752.353 C430.4725,743.933 430.4725,730.233 416.4425,721.803 C402.4025,713.383 379.5625,713.383 365.5225,721.803" id="Fill-25" fill="#5D4388"></path>
            <path d="M278.5225,91.807 C264.4925,100.228 264.4925,113.932 278.5225,122.354 C292.5625,130.775 315.4025,130.775 329.4425,122.354 C343.4725,113.932 343.4725,100.228 329.4425,91.807 C315.4025,83.385 292.5625,83.385 278.5225,91.807" id="Fill-26" fill="#6EC7E3"></path>
            <polyline id="Fill-27" fill="#6EC7E3" points="457.8425 617.363 314.7125 531.66 324.9825 514.5 468.1225 600.201 457.8425 617.363"></polyline>
            <polyline id="Fill-28" fill="#6EC7E3" points="813.0325 233.619 742.4925 190.619 752.9025 173.541 823.4425 216.541 813.0325 233.619"></polyline>
            <polyline id="Fill-29" fill="#5D4388" points="455.2325 269.093 454.8025 11.681 470.2925 11.655 470.7325 269.067 455.2325 269.093"></polyline>
            <polyline id="Fill-30" fill="#5D4388" points="600.4725 530.21 529.6225 487.396 537.6325 474.136 608.4925 516.95 600.4725 530.21"></polyline>
            <polyline id="Fill-31" fill="#5D4388" points="885.3025 700.803 743.0025 615.423 750.9725 602.143 893.2725 687.523 885.3025 700.803"></polyline>
            <polyline id="Fill-32" fill="#5D4388" points="41.1325 447.103 30.8425 429.953 102.3825 387.024 112.6725 404.174 41.1325 447.103"></polyline>
            <polyline id="Fill-33" fill="#5D4388" points="41.5425 702.723 31.2225 685.593 243.9525 557.366 254.2725 574.495 41.5425 702.723"></polyline>
            <polyline id="Fill-34" fill="#5D4388" points="599.3425 873.013 386.2725 745.173 396.5625 728.023 609.6325 855.863 599.3425 873.013"></polyline>
            <polygon id="Fill-35" fill="#6EC7E3" points="594.5525 353.409 614.5525 353.409 614.5525 183.128 594.5525 183.128"></polygon>
            <polyline id="Fill-36" fill="#5D4388" points="827.9825 395.81 807.9825 395.75 808.2325 310.308 828.2325 310.367 827.9825 395.81"></polyline>
            <polyline id="Fill-37" fill="#5D4388" points="467.6825 446.702 457.4125 429.54 670.9225 301.773 681.1925 318.935 467.6825 446.702"></polyline>
            <path d="M689.9825,292.239 C684.7025,292.239 679.4225,293.39 675.5825,295.691 C672.7425,297.398 671.7325,299.123 671.7325,300.08 C671.7325,301.038 672.7425,302.762 675.5825,304.469 C683.2525,309.071 696.7125,309.071 704.3825,304.469 C707.2225,302.762 708.2325,301.038 708.2325,300.08 C708.2325,299.123 707.2225,297.398 704.3825,295.691 C700.5525,293.39 695.2625,292.239 689.9825,292.239 Z M689.9825,323.398 C681.9325,323.398 673.8825,321.516 667.6125,317.753 C660.3825,313.415 656.2325,306.974 656.2325,300.08 C656.2325,293.187 660.3825,286.745 667.6125,282.407 C680.1525,274.881 699.8125,274.881 712.3525,282.407 C719.5825,286.745 723.7325,293.187 723.7325,300.08 C723.7325,306.974 719.5825,313.415 712.3525,317.753 C706.0825,321.516 698.0325,323.398 689.9825,323.398 L689.9825,323.398 Z" id="Fill-38" fill="#5D4388"></path>
            <path d="M437.5225,422.807 C423.4925,431.228 423.4925,444.932 437.5225,453.354 C451.5625,461.775 474.4025,461.775 488.4425,453.354 C502.4725,444.932 502.4725,431.228 488.4425,422.807 C474.4025,414.385 451.5625,414.385 437.5225,422.807" id="Fill-39" fill="#5D4388"></path>
            <polyline id="Fill-40" fill="#6EC7E3" points="173.3825 788.023 26.3825 699.823 26.3825 250.067 178.9725 341.416 457.8225 173.513 468.1425 190.647 179.0025 364.744 46.3825 285.35 46.3825 688.503 183.6725 770.873 173.3825 788.023"></polyline>
            <path d="M437.5225,166.807 C423.4925,175.228 423.4925,188.932 437.5225,197.354 C451.5625,205.775 474.4025,205.775 488.4425,197.354 C502.4725,188.932 502.4725,175.228 488.4425,166.807 C474.4025,158.385 451.5625,158.385 437.5225,166.807" id="Fill-41" fill="#6EC7E3"></path>
            <polyline id="Fill-42" fill="#6EC7E3" points="681.2025 233.638 670.9125 216.489 728.2325 182.097 462.5825 23.336 396.9325 63.039 386.5825 45.926 462.5225 -9.09494702e-13 767.1625 182.063 681.2025 233.638"></polyline>
            <polygon id="Fill-43" fill="#6EC7E3" points="168.5325 608.873 188.5325 608.873 188.5325 438.29 168.5325 438.29"></polygon>
            <path d="M172.7225,613.393 C172.5525,613.393 172.3925,613.413 172.2625,613.453 C171.3325,613.693 169.9325,615.113 169.0125,618.303 C166.5525,626.903 170.0425,639.903 176.4725,646.123 C178.8525,648.433 180.7825,648.963 181.7125,648.713 C182.6325,648.463 184.0325,647.043 184.9525,643.853 C187.4125,635.253 183.9225,622.253 177.4925,616.033 C175.4625,614.063 173.7525,613.393 172.7225,613.393 Z M181.2525,664.263 C175.9125,664.263 170.4325,661.833 165.7025,657.263 C155.1825,647.093 150.1025,628.113 154.1225,614.043 C156.4425,605.943 161.5925,600.268 168.2525,598.484 C174.9125,596.701 182.2025,599.038 188.2625,604.903 C198.7825,615.063 203.8625,634.053 199.8425,648.113 C197.5225,656.223 192.3725,661.893 185.7225,663.673 C184.2525,664.073 182.7625,664.263 181.2525,664.263 L181.2525,664.263 Z" id="Fill-44" fill="#6EC7E3"></path>
            <path d="M185.1525,409.539 C173.3825,398.16 160.1425,401.707 155.6425,417.445 C151.1425,433.183 157.0525,455.243 168.8225,466.622 C180.5825,478 193.8225,474.453 198.3225,458.715 C202.8225,442.977 196.9125,420.917 185.1525,409.539" id="Fill-45" fill="#6EC7E3"></path>
            <polyline id="Fill-46" fill="#6EC7E3" points="473.0025 967.793 310.6825 870.403 310.6825 694.163 330.6825 694.163 330.6825 859.083 452.9625 932.453 452.5525 523.759 472.5525 523.739 473.0025 967.793"></polyline>
            <path d="M517.8225,878.543 C529.5825,867.163 542.8225,870.703 547.3225,886.443 C551.8225,902.183 545.9125,924.243 534.1525,935.623 C522.3825,947.003 509.1425,943.453 504.6425,927.713 C500.1425,911.973 506.0525,889.913 517.8225,878.543" id="Fill-47" fill="#6EC7E3"></path>
            <path d="M104.8225,370.539 C116.5825,359.16 129.8225,362.707 134.3225,378.445 C138.8225,394.183 132.9125,416.243 121.1525,427.622 C109.3825,439 96.1425,435.453 91.6425,419.715 C87.1425,403.977 93.0525,381.917 104.8225,370.539" id="Fill-48" fill="#5D4388"></path>
            <polyline id="Fill-49" fill="#6EC7E3" points="539.0525 915.963 528.7625 898.813 670.9125 813.523 681.2025 830.673 539.0525 915.963"></polyline>
            <polygon id="Fill-50" fill="#6EC7E3" points="807.9925 736.933 827.9925 736.933 827.9925 566.355 807.9925 566.355"></polygon>
            <path d="M809.8225,516.539 C821.5825,505.16 834.8225,508.707 839.3225,524.445 C843.8225,540.183 837.9125,562.243 826.1525,573.622 C814.3825,585 801.1425,581.453 796.6425,565.715 C792.1425,549.977 798.0525,527.917 809.8225,516.539" id="Fill-51" fill="#6EC7E3"></path>
            <polyline id="Fill-52" fill="#6EC7E3" points="666.0625 839.763 666.0625 583.887 610.1325 617.443 599.8425 600.296 686.0625 548.563 686.0625 804.433 879.2825 688.503 879.2825 285.371 681.2825 404.174 670.9925 387.024 899.2825 250.046 899.2825 699.823 666.0625 839.763"></polyline>
        </g>
    </g>
</svg>