<?xml version="1.0" encoding="UTF-8"?>
<svg width="1200px" height="1200px" viewBox="0 0 1200 1200" version="1.1" xmlns="http://www.w3.org/2000/svg" xmlns:xlink="http://www.w3.org/1999/xlink">
    <title>Incubator</title>
    <defs>
        <linearGradient x1="97.18687%" y1="87.104195%" x2="71.7144454%" y2="22.0640669%" id="linearGradient-1">
            <stop stop-color="#FFC3A0" offset="0%"></stop>
            <stop stop-color="#FFAFBD" offset="100%"></stop>
        </linearGradient>
        <linearGradient x1="50%" y1="0%" x2="50%" y2="100%" id="linearGradient-2">
            <stop stop-color="#0C0C02" offset="0%"></stop>
            <stop stop-color="#43003E" offset="100%"></stop>
        </linearGradient>
    </defs>
    <g id="Incubator" stroke="none" stroke-width="1" fill="none" fill-rule="evenodd">
        <g id="DAOSquare-LogoColorBG" fill-rule="nonzero">
            <circle id="椭圆形备份" fill="url(#linearGradient-1)" cx="600" cy="600" r="600"></circle>
            <g id="编组-4" transform="translate(242.400000, 240.000000)">
                <rect id="矩形" fill="#FFFFFF" opacity="0" x="0" y="0" width="720" height="720"></rect>
                <g id="编组-2" transform="translate(7.306868, 0.000000)">
                    <path d="M350.728324,629.534906 C384.813455,645.183142 448.886927,642.571133 521.562026,654.319157 C594.237124,666.067181 647.804582,755.798513 662.310266,702.704326 C682.712956,628.025724 632.251593,488.237849 588.41739,373.910366 C586.875518,369.888886 633.208742,367.492114 662.310266,311.97437 C679.541699,279.10151 679.186166,196.863889 690.666921,168.224073 C726.367636,79.1653066 684.518848,101.340102 680.52477,92.2188154 C678.061766,86.594046 694.063535,1.36244909 668.697784,42.9738146 C663.348806,51.7485706 614.782074,181.354053 603.444743,205.470085 C578.013815,259.565098 555.407248,264.612074 553.878098,260.524039 C543.333885,247.381375 536.221708,229.030057 532.541567,205.470085 C515.02575,93.3352042 440.736422,-1.55469226e-15 327.489035,-1.55469226e-15 C214.241649,-1.55469226e-15 122.436504,91.992181 122.436504,205.470085 C116.051927,224.159544 112.859638,242.510863 112.859638,260.524039 C112.859638,267.935575 69.4703168,303.02611 47.2505753,327.122306 C11.8219003,365.54293 0.258623778,406.203079 3.31885561e-14,418.844124 C-0.14577708,426.507367 5.58800664,496.588056 36.5416525,480.163778 C38.6602757,479.039618 41.8976521,471.164441 46.3089593,460.518324 C52.4346841,445.734686 60.7643626,424.835047 71.5652823,410.022533 C87.0953379,388.724424 110.431772,382.981181 112.859638,383.020447 C112.363889,452.90161 112.363889,491.518622 112.859638,498.871486 C117.128186,562.181837 130.781146,582.496728 164.080883,629.534906 C185.798071,660.211932 217.84334,672.799555 250.374818,654.319157 C263.764996,646.712496 301.94805,607.140238 350.728324,629.534906 Z" id="椭圆形" fill="url(#linearGradient-2)"></path>
                    <ellipse id="椭圆形" fill="#FFFFFF" cx="412.244082" cy="182.222222" rx="82.0210128" ry="83.076923"></ellipse>
                    <g id="编组-3" transform="translate(331.259858, 135.465115)">
                        <ellipse id="椭圆形" fill="#160B0D" transform="translate(65.519569, 60.774200) rotate(-18.000000) translate(-65.519569, -60.774200) " cx="65.5195689" cy="60.7742002" rx="53.8091938" ry="46.4181089"></ellipse>
                        <ellipse id="椭圆形" fill="#FFFFFF" cx="94.9104315" cy="47.4408672" rx="11.2778893" ry="11.2820513"></ellipse>
                    </g>
                    <ellipse id="椭圆形" fill="#FFFFFF" cx="204.457517" cy="241.02564" rx="25.2898123" ry="24.2735042"></ellipse>
                    <ellipse id="椭圆形" fill="#FFFFFF" transform="translate(349.617342, 413.333333) rotate(50.000000) translate(-349.617342, -413.333333) " cx="349.617342" cy="413.333333" rx="104.941267" ry="68.7030725"></ellipse>
                    <ellipse id="椭圆形" fill="#000000" cx="215.051897" cy="234.188034" rx="5.12631331" ry="5.12820514"></ellipse>
                </g>
            </g>
        </g>
    </g>
</svg>