<?xml version="1.0" encoding="UTF-8"?>
<svg width="1200px" height="1200px" viewBox="0 0 1200 1200" version="1.1" xmlns="http://www.w3.org/2000/svg" xmlns:xlink="http://www.w3.org/1999/xlink">
    <title>collection</title>
    <defs>
        <linearGradient x1="-0.00708184073%" y1="50.044453%" x2="99.990631%" y2="50.044453%" id="linearGradient-1">
            <stop stop-color="#BDD9EF" offset="0%"></stop>
            <stop stop-color="#C5DDEE" offset="27.41%"></stop>
            <stop stop-color="#DCE6EA" offset="70.4%"></stop>
            <stop stop-color="#EFEFE7" offset="100%"></stop>
        </linearGradient>
        <radialGradient cx="50.0458333%" cy="49.9669728%" fx="50.0458333%" fy="49.9669728%" r="59.2510254%" gradientTransform="translate(0.500458,0.499670),scale(1.000000,0.740000),translate(-0.500458,-0.499670)" id="radialGradient-2">
            <stop stop-color="#FF464E" offset="21.43%"></stop>
            <stop stop-color="#FD454D" offset="22.47%"></stop>
            <stop stop-color="#E3383F" offset="40.91%"></stop>
            <stop stop-color="#D02E35" offset="59.79%"></stop>
            <stop stop-color="#C5292F" offset="79.21%"></stop>
            <stop stop-color="#C1272D" offset="100%"></stop>
        </radialGradient>
        <linearGradient x1="50.0000157%" y1="99.9989704%" x2="50.0000157%" y2="0.00828488372%" id="linearGradient-3">
            <stop stop-color="#1B1464" offset="7.142857%"></stop>
            <stop stop-color="#BDD9EF" offset="82.65%"></stop>
            <stop stop-color="#EFEFE7" offset="100%"></stop>
        </linearGradient>
        <linearGradient x1="49.9833553%" y1="100.006293%" x2="49.9833553%" y2="0.00254576659%" id="linearGradient-4">
            <stop stop-color="#EFEFE7" offset="0%"></stop>
            <stop stop-color="#BDD9EF" offset="46.94%"></stop>
            <stop stop-color="#1B1464" offset="100%"></stop>
        </linearGradient>
        <linearGradient x1="0.00934141637%" y1="49.9725946%" x2="100.007082%" y2="49.9725946%" id="linearGradient-5">
            <stop stop-color="#EFEFE7" offset="0%"></stop>
            <stop stop-color="#BDD9EF" offset="100%"></stop>
        </linearGradient>
        <linearGradient x1="50%" y1="100.071097%" x2="50%" y2="0.0170322581%" id="linearGradient-6">
            <stop stop-color="#F7B5B2" offset="0%"></stop>
            <stop stop-color="#F6BDBA" offset="24.64%"></stop>
            <stop stop-color="#F3D4CE" offset="63.28%"></stop>
            <stop stop-color="#EFEFE7" offset="100%"></stop>
        </linearGradient>
        <linearGradient x1="50%" y1="99.9854587%" x2="50%" y2="-0.0649146213%" id="linearGradient-7">
            <stop stop-color="#EFEFE7" offset="0%"></stop>
            <stop stop-color="#F3D4CE" offset="36.72%"></stop>
            <stop stop-color="#F6BDBA" offset="75.36%"></stop>
            <stop stop-color="#F7B5B2" offset="100%"></stop>
        </linearGradient>
        <linearGradient x1="-0.00685262319%" y1="50.0150679%" x2="100.007029%" y2="50.0150679%" id="linearGradient-8">
            <stop stop-color="#EFEFE7" offset="0%"></stop>
            <stop stop-color="#EEEEE7" offset="0.4484122%"></stop>
            <stop stop-color="#D8E5EB" offset="10.25%"></stop>
            <stop stop-color="#C9DEED" offset="21.02%"></stop>
            <stop stop-color="#C0DAEF" offset="33.5%"></stop>
            <stop stop-color="#BDD9EF" offset="51.53%"></stop>
        </linearGradient>
        <linearGradient x1="-0.0176267203%" y1="50.0406876%" x2="99.9594515%" y2="50.0406876%" id="linearGradient-9">
            <stop stop-color="#EFEFE7" offset="0%"></stop>
            <stop stop-color="#F3D4CE" offset="36.72%"></stop>
            <stop stop-color="#F6BDBA" offset="75.36%"></stop>
            <stop stop-color="#F7B5B2" offset="100%"></stop>
        </linearGradient>
        <linearGradient x1="-0.0338753983%" y1="49.9620289%" x2="100.010971%" y2="49.9620289%" id="linearGradient-10">
            <stop stop-color="#F7B5B2" offset="0%"></stop>
            <stop stop-color="#F6BDBA" offset="24.64%"></stop>
            <stop stop-color="#F3D4CE" offset="63.28%"></stop>
            <stop stop-color="#EFEFE7" offset="100%"></stop>
        </linearGradient>
        <linearGradient x1="0.0410858122%" y1="49.9903126%" x2="99.9861248%" y2="49.9903126%" id="linearGradient-11">
            <stop stop-color="#BDD9EF" offset="48.47%"></stop>
            <stop stop-color="#C0DAEF" offset="66.5%"></stop>
            <stop stop-color="#C9DEED" offset="78.98%"></stop>
            <stop stop-color="#D8E5EB" offset="89.75%"></stop>
            <stop stop-color="#EEEEE7" offset="99.55%"></stop>
            <stop stop-color="#EFEFE7" offset="100%"></stop>
        </linearGradient>
    </defs>
    <g id="collection" stroke="none" stroke-width="1" fill="none" fill-rule="evenodd">
        <circle id="椭圆形备份-4" fill="#1B1464" cx="600" cy="599" r="600"></circle>
        <g id="编组" transform="translate(245.000000, 185.000000)" fill-rule="nonzero">
            <path d="M673,229.302442 C672.122348,229.639877 671.312207,229.977312 670.434555,230.179773 C667.734087,230.92213 664.831083,231.192078 661.928079,231.192078 C632.76302,231.192078 595.158997,198.730821 580.508956,184.828495 C561.470653,208.583926 538.584183,224.57835 504.018187,224.57835 C504.018187,224.57835 504.018187,224.57835 504.018187,224.57835 C502.735464,224.57835 501.38523,224.780811 500.034996,224.713324 C458.177735,223.296097 437.586663,196.638723 428,177 C428.067512,191.847145 439.206944,209.731206 445.418021,217.829648 C454.869661,216.20996 464.388812,216.412421 473.232847,220.124207 C482.414439,223.970967 489.638192,231.124591 494.701571,241.315132 C528.862497,248.536243 580.171397,252.248029 620.880959,224.57835 L629.049876,236.59104 C605.218242,252.787925 575.378066,261.088829 541.554698,261.088829 C532.103059,261.088829 522.313861,260.413959 512.322127,259.131705 C508.676495,258.659296 505.165886,258.1194 501.722789,257.512017 C501.925324,257.984426 502.195371,258.456835 502.397906,258.861757 C534.263433,267.905018 577.943511,273.30398 616.087627,253.192848 L622.90631,266.015382 C603.395426,276.340896 580.846514,281.46991 556.20474,281.46991 C542.634886,281.46991 528.389915,279.917708 513.672362,276.678331 C514.685037,278.095559 515.765225,279.512786 516.7779,280.862526 C544.660237,289.770813 578.821163,294.427418 611.294296,281.807345 L616.560209,295.372236 C601.640121,301.17612 585.369799,304.078062 568.154312,304.078062 C556.002204,304.078062 543.377514,302.593347 530.482778,299.691405 C532.035547,302.053451 533.520805,304.550471 534.938551,307.114978 C556.947368,313.998654 581.656655,317.03557 606.568476,310.556816 L610.214109,324.594117 C599.884817,327.293597 589.150455,328.575851 578.078534,328.575851 C566.331496,328.575851 554.314412,327.091136 542.02728,324.121707 C542.837421,326.956162 543.58005,329.925591 544.187655,333.029994 C562.010747,339.103826 581.521631,342.208229 601.842656,339.373774 L603.868008,353.74851 C598.197024,354.558354 592.458529,354.895789 586.58501,354.895789 C573.285203,354.895789 559.647837,352.871179 545.875448,348.821957 C545.875448,349.564315 545.942959,350.306672 545.942959,351.116516 C546.010471,353.613536 545.807936,355.975582 545.537889,358.27014 C560.457977,364.411459 576.7283,368.393194 594.011298,368.393194 C595.023974,368.393194 596.036649,368.393194 597.049325,368.325707 L597.454395,382.835416 C596.306696,382.835416 595.226509,382.902903 594.07881,382.902903 C576.593276,382.902903 558.770185,379.258604 541.21714,372.172467 C538.44916,377.571429 534.398457,382.29552 529.200055,386.412228 C529.40259,386.614689 529.605125,386.817151 529.807661,387.019612 C563.496004,421.50548 580.238909,468.881369 579.698815,528 C616.020116,502.084984 631.412786,467.396654 632.222926,411.787349 C632.35795,403.756393 632.290438,396.13036 632.290438,388.706787 C632.087903,342.748125 631.95288,306.440108 667.261505,241.045184 C669.489391,237.130936 671.379719,233.216689 673,229.302442 Z" id="路径" fill="url(#linearGradient-1)"></path>
            <path d="M316.591111,819 C309.237754,819 303.166175,823.279891 303.031251,824.978261 C302.491555,830.209239 309.035368,838.293478 315.444257,844 C318.614971,840.263587 322.527766,833.741848 323,824.095109 C322.932538,823.55163 322.932538,822.940217 322.932538,822.396739 C322.797614,821.649457 322.595228,820.970109 322.190456,820.630435 C321.245988,819.543478 319.154667,819 316.591111,819 Z" id="路径" fill="#FBB03B"></path>
            <path d="M261.193163,733 C256.226414,756.346021 249.694799,796.83045 254.933699,831.444637 L277.113975,850 C280.924084,847.84083 287.319623,841.903114 287.931962,825.709343 C287.863925,824.83218 287.931962,823.955017 288,823.077855 C288,818.624567 287.659812,813.49654 286.707285,807.558824 C282.012686,778.679931 269.833946,750.408304 261.193163,733 Z" id="路径" fill="#FBB03B"></path>
            <path d="M428.686997,632.87048 C427.207891,605.597259 417.929859,586.762535 402.533705,579.876721 C389.356211,573.93602 372.480951,577.378926 358.496671,588.517742 L356.412476,590.407965 L355.000601,590.407965 L353.588727,590.407965 L351.504531,588.517742 C337.520252,577.378926 320.644991,574.071036 307.467497,580.011737 C292.138575,586.965058 282.860544,605.732275 281.314205,633.005495 C278.624921,681.746251 293.415985,733.524866 317.350618,758.907863 C328.443916,770.654251 341.083554,776.729968 354.933369,777 C368.783184,776.729968 381.422822,770.654251 392.51612,758.907863 C416.517985,733.38985 431.376282,681.611235 428.686997,632.87048 Z" id="路径" fill="url(#radialGradient-2)"></path>
            <path d="M255.482696,455 C246.890395,461.320228 238.639059,468.447293 230.933265,476.582906 C227.796393,479.877493 224.8641,483.373789 222,486.870085 C223.022893,525.8 233.729173,555.854701 241.571352,573 C250.027267,538.305983 261.074511,481.894587 255.482696,455 Z" id="路径" fill="#FBB03B"></path>
            <path d="M367.108074,909 C362.52332,909 358.343103,908.797602 354.5,908.460271 C350.72432,908.865068 346.47668,909 341.891926,909 C323.080949,909 302.516977,905.761628 285.526417,900.161943 C249.657457,888.287912 223.834503,866.09157 208.934051,834.315044 C171.716634,755.109859 152.231428,633.401042 151.422354,628.273619 C151.354931,627.733891 143.803571,573.491158 140.432428,541.107437 L140.432428,540.905039 C137.128708,478.431444 152.770811,429.113735 186.819354,394.166303 C187.493583,393.491642 188.235234,392.816982 188.909463,392.142321 C189.314,391.737524 189.718537,391.400194 190.123074,390.995397 L194.168446,390.25327 C201.922074,393.694041 210.147663,395.448159 218.642943,395.448159 C237.92588,395.448159 256.197474,386.340237 268.872971,370.418241 C278.581863,358.20688 294.628503,352 316.540931,352 C327.59828,352 340.3412,353.55172 354.5,356.65516 C368.6588,353.55172 381.40172,352 392.459069,352 C414.371497,352 430.418137,358.20688 440.127029,370.418241 C452.802526,386.340237 471.141543,395.448159 490.357057,395.448159 C498.852337,395.448159 507.077926,393.694041 514.831554,390.25327 L518.876926,390.995397 C519.281463,391.400194 519.686,391.737524 520.090537,392.142321 C520.764766,392.749516 521.506417,393.424176 522.180646,394.166303 C556.229189,429.113735 571.871292,478.49891 568.567572,540.905039 L568.567572,541.107437 C565.196429,573.28876 557.645069,627.733891 557.577646,628.206153 C556.768572,633.401042 537.215943,755.109859 500.065949,834.315044 C485.098074,866.09157 459.342543,888.287912 423.473583,900.161943 C406.483023,905.761628 385.919051,909 367.108074,909 Z M354.97196,881.811168 C357.129491,881.811168 362.05136,882.081032 366.501269,882.081032 C390.908343,882.081032 412.55108,876.07655 432.777937,863.932655 L434.7332,863.460392 L438.711149,860.087088 L438.98084,859.817224 C442.351983,857.523377 445.58828,855.094598 448.622309,852.665819 C452.735103,849.359981 456.780474,845.58188 460.691,841.533915 L460.960692,841.26405 L465.006063,837.890746 L465.073486,837.755814 L465.88256,836.136628 C485.502612,814.075218 501.549252,784.255208 513.55052,747.553658 C525.686634,710.514777 533.440263,667.336483 536.609137,619.165698 C540.45224,559.66061 523.394257,507.846657 487.255606,469.18859 C453.948714,433.633963 403.11188,409.076308 354.432577,405.095809 C305.753274,409.143774 254.91644,433.633963 221.609548,469.18859 C185.470897,507.779191 168.412914,559.66061 172.256017,619.165698 C175.357468,667.269016 183.111097,710.514777 195.314634,747.553658 C207.315903,784.255208 223.362543,814.007752 242.982594,836.136628 L243.791668,837.755814 L243.859091,837.890746 L247.904463,841.26405 L248.174154,841.533915 C252.08468,845.58188 256.197474,849.292515 260.242846,852.665819 C263.276874,855.162064 266.513171,857.523377 269.884314,859.817224 L270.154006,860.019622 L274.131954,863.32546 L276.087217,863.730257 C296.314074,875.874152 318.024234,882.013566 342.363886,882.013566 C346.813794,882.013566 351.735663,881.743702 353.893194,881.743702 L354.97196,881.743702 L354.97196,881.811168 Z" id="形状" fill="url(#linearGradient-3)"></path>
            <path d="M159.749527,600 C157.322729,581.638444 154.221822,557.40389 152.401724,539.852403 C149.368228,481.459954 163.524544,435.488558 194.533619,403.153318 C202.285888,405.853547 210.307801,407.271167 218.599358,407.271167 C241.519109,407.271167 263.292873,396.470252 278.258122,377.703661 C285.673336,368.387872 298.211788,364 316.547589,364 C326.928888,364 339.062874,365.41762 352.679902,368.792906 L356.320098,368.792906 C369.937126,365.41762 382.071112,364 392.452411,364 C410.788212,364 423.259253,368.455378 430.741878,377.771167 C445.707127,396.537757 467.480891,407.271167 490.400642,407.271167 C498.692199,407.271167 506.714112,405.853547 514.466381,403.153318 C545.475456,435.556064 559.631772,481.52746 556.598276,539.852403 C554.710767,557.40389 551.677271,581.638444 549.250473,600 C548.711185,545.320366 530.510206,497.661327 496.13058,460.870709 C460.807199,423.135011 406.810961,397.820366 355.241521,393.094966 L353.893301,393.094966 C302.323861,397.820366 248.327624,423.135011 213.004242,460.870709 C178.422383,497.661327 160.288815,545.320366 159.749527,600 Z" id="路径" fill="url(#linearGradient-4)"></path>
            <path d="M414.96875,854.853808 C413.423437,852.750164 412.0125,850.442941 410.870312,848 C405.226562,854.51451 399.1125,859.061095 397.835937,859.943269 L393.46875,863.064805 L389.034375,860.078988 C388.698437,859.80755 384.196875,856.753873 379.7625,850.57866 C374.857812,860.554004 368.74375,865.03273 368.340625,865.372027 L364.040625,868.425704 L360.345312,865.507746 C359.3375,864.829151 357.120312,862.725507 354.567187,858.246782 C352.014062,862.725507 349.796875,864.829151 348.789062,865.507746 L345.09375,868.425704 L340.79375,865.372027 C340.390625,865.100589 334.276562,860.621863 329.371875,850.57866 C324.9375,856.753873 320.503125,859.80755 320.1,860.078988 L315.665625,863.064805 L311.298438,859.943269 C310.021875,858.993236 303.907813,854.51451 298.264062,848 C297.121875,850.442941 295.710938,852.818023 294.165625,854.853808 C292.95625,856.550295 291.34375,857.975344 290,859.196814 C309.417188,868.765001 331.521875,872.497273 354.5,870.461488 C377.478125,872.497273 399.515625,868.765001 419,859.196814 C417.790625,857.975344 416.178125,856.550295 414.96875,854.853808 Z" id="路径" fill="#FF464E"></path>
            <path d="M448.771466,733 C440.122477,750.408304 427.93217,778.679931 423.301215,807.558824 C422.347783,813.49654 421.93917,818.624567 422.007272,823.077855 C422.075374,823.955017 422.075374,824.83218 422.075374,825.709343 C422.756397,841.83564 429.089909,847.84083 432.903636,850 L455.104977,831.444637 C460.28075,796.83045 453.742932,756.346021 448.771466,733 Z" id="路径" fill="#FBB03B"></path>
            <path d="M179.799945,386.373152 C174.601543,382.261187 170.618352,377.542539 167.78286,372.149798 C150.162304,379.22777 132.406724,382.86787 114.92119,382.86787 C113.773491,382.86787 112.693304,382.86787 111.545605,382.800461 L111.950675,368.307471 C112.963351,368.307471 113.976026,368.37488 114.988702,368.37488 C132.2717,368.37488 148.609534,364.465143 163.462111,358.263491 C163.124552,355.971577 162.989529,353.544843 163.057041,351.11811 C163.057041,350.309199 163.124552,349.635107 163.124552,348.826196 C149.352163,352.870751 135.782309,354.893029 122.41499,354.893029 C116.608983,354.893029 110.870488,354.488573 105.131992,353.747071 L107.157344,339.3889 C127.478369,342.220088 146.989253,339.119263 164.812345,333.052429 C165.41995,329.951604 166.095068,326.918187 166.97272,324.154408 C154.685588,327.120415 142.600992,328.603418 130.921466,328.603418 C119.849545,328.603418 109.115183,327.255233 98.7858914,324.626272 L102.431524,310.605147 C127.343345,317.076436 152.052632,314.043019 174.061449,307.167275 C175.479195,304.605723 176.964453,302.111581 178.517222,299.752257 C165.622486,302.650855 152.997796,304.133858 140.845688,304.133858 C123.630201,304.133858 107.42739,301.23526 92.4397906,295.438064 L97.7057041,281.888804 C130.178837,294.494335 164.272251,289.910505 192.2221,280.945074 C193.302287,279.596889 194.314963,278.181294 195.327638,276.7657 C180.610085,279.933935 166.432626,281.484348 152.79526,281.484348 C128.153486,281.484348 105.604574,276.293835 86.0936897,266.047628 L92.9123726,253.239869 C131.056489,273.395237 174.736567,268.002497 206.602094,258.902247 C206.804629,258.430382 207.074676,257.958517 207.277211,257.554062 C203.834114,258.160745 200.323505,258.700019 196.677873,259.171884 C186.618628,260.45266 176.896941,261.126752 167.445302,261.126752 C133.621934,261.126752 103.781758,252.835414 79.950124,236.657192 L88.1190411,224.658345 C128.828603,252.29614 180.137503,248.588631 214.298429,241.37584 C219.361808,231.129633 226.585561,223.984252 235.767153,220.141924 C244.611188,216.501824 254.130339,216.232187 263.581979,217.85001 C269.793056,209.760899 280.932488,191.830036 281,177 C271.413337,196.683503 250.822265,223.377569 208.965004,224.793163 C207.61477,224.860572 206.264536,224.658345 204.981813,224.658345 C204.981813,224.658345 204.981813,224.658345 204.981813,224.658345 C170.415817,224.658345 147.529347,208.682351 128.491044,184.954292 C113.841003,198.840599 76.2369799,231.39927 47.0719206,231.39927 C44.1689171,231.39927 41.3334252,230.994815 38.565445,230.320722 C37.6877928,230.118494 36.8101405,229.714039 36,229.444402 C37.6202811,233.286729 39.4430973,237.263876 41.6709837,241.37584 C77.0471204,306.69541 76.8445853,342.96159 76.6420502,388.867294 C76.6420502,396.214903 76.5745384,403.899558 76.7095619,411.92126 C77.5197024,467.466487 92.9798843,502.114845 129.233673,528 C128.693579,468.949491 145.436484,421.628193 179.124828,387.182063 C179.394875,386.777607 179.59741,386.642789 179.799945,386.373152 Z" id="路径" fill="url(#linearGradient-5)"></path>
            <path d="M537.452545,0 C521.54608,0 505.370014,4.87741935 489.463549,14.4967742 C442.552957,42.9483871 392.407153,47.1483871 366.255846,47.1483871 C361.740028,47.1483871 357.49381,47.0129032 355,46.8774194 C352.43879,47.0129032 348.192572,47.1483871 343.744154,47.1483871 C317.660248,47.1483871 267.514443,42.8806452 220.536451,14.4967742 C204.629986,4.87741935 188.45392,0 172.547455,0 C153.203576,0 134.870702,7.51935484 122.19945,20.5935484 C116.268226,26.7580645 112.089409,33.6 110,40.3741935 C134.264099,34.2774194 157.382393,31.1612903 178.883081,31.1612903 C232.938102,31.1612903 277.152682,51.2806452 303.57359,87.8612903 C305.730399,90.8419355 307.415406,93.7548387 309.167813,96.6 C323.726272,102.154839 335.251719,105 344.013755,105 C350.21458,105 355,103.509677 355,101.680645 C355,103.509677 359.78542,105 365.986245,105 C374.748281,105 386.273728,102.154839 400.832187,96.6 C402.584594,93.7548387 404.269601,90.7741935 406.42641,87.8612903 C432.847318,51.2806452 477.061898,31.1612903 531.116919,31.1612903 C552.617607,31.1612903 575.735901,34.2774194 600,40.3741935 C597.977992,33.6 593.799175,26.6903226 587.80055,20.5935484 C575.129298,7.51935484 556.729023,0 537.452545,0 Z" id="路径" fill="url(#linearGradient-6)"></path>
            <path d="M195.112191,378.908118 C217.068141,390.939488 244.614103,384.653435 261.047391,364.037886 C278.423573,342.205681 309.000264,336.392772 355,345.990831 C400.999736,336.392772 431.643777,342.205681 448.952609,364.037886 C465.385897,384.721027 492.931859,390.939488 514.887809,378.908118 C526.741328,372.41929 532.196641,363.361966 531.994592,351.263004 C531.523145,323.144747 520.679869,309.018026 508.220204,292.66077 C499.599463,281.372912 490.709324,269.679502 484.580516,252.713919 C480.943641,242.575124 475.555677,236.153887 468.281927,233.112249 C454.003824,227.164156 434.06836,235.004824 420.329054,241.493653 C406.657097,247.847297 391.503451,243.859371 376.282455,239.939037 C368.941355,238.046462 360.118565,236.153887 355,235.477968 C349.881435,236.153887 341.058645,238.046462 333.717545,239.939037 C318.496549,243.859371 303.342903,247.847297 289.670946,241.493653 C275.86429,235.072416 255.928826,227.164156 241.718073,233.112249 C234.444323,236.153887 229.056359,242.575124 225.419484,252.713919 C219.290676,269.679502 210.400537,281.372912 201.779796,292.66077 C189.320131,309.018026 178.476855,323.212339 178.005408,351.263004 C177.803359,363.361966 183.258672,372.41929 195.112191,378.908118 Z M478.788455,360.658288 C487.207148,362.888823 496.366685,361.199023 502.764892,356.26481 C506.536466,353.358355 511.048885,347.072303 511.048885,338.961267 L526.40458,338.961267 C526.40458,353.155579 521.353365,361.334207 512.193827,368.431364 C504.920077,374.041497 495.760539,376.880359 486.331604,376.880359 C482.56003,376.880359 478.721106,376.474808 474.949531,375.460928 L478.788455,360.658288 Z M404.097815,310.572641 C412.987954,280.223849 443.766694,246.157498 464.375654,270.423014 C483.839671,293.471874 444.911636,321.657724 411.977711,321.319764 C406.387699,321.319764 402.481426,315.912407 404.097815,310.572641 Z M245.691696,270.490606 C266.233306,246.157498 297.079395,280.223849 305.969535,310.640233 C307.518574,315.979999 303.67965,321.319764 298.089638,321.387356 C265.088364,321.725316 226.160329,293.539466 245.691696,270.490606 Z M199.018464,338.961267 C199.018464,347.072303 203.530884,353.290763 207.302458,356.26481 C213.700664,361.199023 222.860202,362.821231 231.278894,360.658288 L235.185168,375.52852 C231.413593,376.5424 227.57467,376.947951 223.803095,376.947951 C214.37416,376.947951 205.281972,374.109089 197.940872,368.498956 C188.781334,361.401799 183.730119,353.223171 183.730119,339.028859 L199.018464,339.028859 L199.018464,338.961267 Z" id="形状" fill="url(#linearGradient-7)"></path>
            <path d="M124.289106,129 C119.233997,129 114.448495,129.402948 110,129.738739 C136.623569,177.085176 157.989826,211 204.631624,211 C204.631624,211 204.631624,211 204.631624,211 C205.777448,211 206.923273,210.328419 208.136499,210.328419 C245.13989,209.052416 261.922849,184.203931 269,167.683047 C265.225519,165.601147 261.04663,163.452088 256.463332,161.235872 C248.105553,184.338247 225.930479,200.859132 199.846121,200.859132 C166.684612,200.859132 139.724036,173.995905 139.724036,140.954136 C139.724036,137.126126 140.128444,133.365274 140.802459,129.738739 C135.208139,129.201474 129.681221,129 124.289106,129 Z" id="路径" fill="#F06361"></path>
            <path d="M526,146.232376 C526,142.83812 524.997976,139.64752 523.261134,137 C512.37247,139.579634 502.285425,142.498695 493.066802,145.553525 C493.066802,145.75718 493,145.960836 493,146.232376 C493,155.464752 500.41498,163 509.5,163 C518.651822,163 526,155.464752 526,146.232376 Z M503.621457,151.391645 C503.621457,148.065274 506.293522,145.349869 509.566802,145.349869 C512.840081,145.349869 515.512146,148.065274 515.512146,151.391645 C515.512146,154.718016 512.840081,157.43342 509.566802,157.43342 C506.293522,157.43342 503.621457,154.718016 503.621457,151.391645 Z" id="形状" fill="#F7B5B2"></path>
            <path d="M440,167.477441 C447.144553,184.025431 463.927512,209.049221 500.863501,210.327317 C502.076727,210.394586 503.222552,211 504.368376,211 C504.368376,211 504.368376,211 504.368376,211 C551.010174,211 572.376431,177.029532 599,129.605414 C594.551505,129.269073 589.766003,129 584.710894,129 C579.318779,129 573.791861,129.201805 568.197541,129.605414 C568.871556,133.2379 569.275964,137.004922 569.275964,140.839212 C569.275964,173.935193 542.315388,200.842494 509.153879,200.842494 C483.136922,200.842494 460.894447,184.227235 452.536668,161.086957 C447.95337,163.306809 443.774481,165.459393 440,167.477441 Z" id="路径" fill="#F06361"></path>
            <path d="M217,146.232376 C217,146.028721 217,145.75718 216.933198,145.553525 C207.714575,142.498695 197.62753,139.579634 186.738866,137 C185.002024,139.64752 184,142.83812 184,146.232376 C184,155.464752 191.41498,163 200.5,163 C209.651822,163 217,155.464752 217,146.232376 Z M194.621457,151.391645 C194.621457,148.065274 197.293522,145.349869 200.566802,145.349869 C203.840081,145.349869 206.512146,148.065274 206.512146,151.391645 C206.512146,154.718016 203.840081,157.43342 200.566802,157.43342 C197.293522,157.43342 194.621457,154.718016 194.621457,151.391645 Z" id="形状" fill="#F7B5B2"></path>
            <path d="M361,824.418103 C361,835.508621 362.849315,842.590517 364.69863,847 C367.575342,842.456897 370.589041,835.040948 371,824.150862 L371,824.017241 C371,823.482759 371,822.948276 371,822.413793 C370.794521,821.411638 370.178082,820.275862 369.219178,819.206897 C367.369863,817.135776 364.972603,816 363.534247,816 C362.09589,816 361,819.607759 361,824.418103 Z" id="路径" fill="#FBB03B"></path>
            <path d="M314.839109,446 C323.607673,429.679458 337.435025,426.361174 338.17698,426.158014 L341.144802,425.480813 L343.505569,427.241535 C343.977723,427.512415 349.373762,431.575621 354.5,441.124153 C359.626238,431.575621 365.022277,427.512415 365.494431,427.241535 L367.855198,425.480813 L370.82302,426.158014 C371.564975,426.361174 385.392327,429.679458 394.160891,446 C399.48948,435.774266 405.425124,431.440181 405.829827,431.1693 L409,429.408578 C389.574257,421.756208 369.811262,417.557562 354.5,416 C339.121287,417.557562 319.358292,421.688488 300,429.408578 L303.170173,431.1693 C303.507426,431.440181 309.443069,435.774266 314.839109,446 Z" id="路径" fill="#FF464E"></path>
            <path d="M348,475.129799 C348,456.798903 342.007559,447.126143 338.412094,443 C334.017637,445.570384 326.360628,452.199269 324.030234,468.433272 C323.830486,470.056673 324.629478,471.747715 326.16088,472.627057 C334.084219,477.294333 341.075401,480 345.27011,480 C347.067842,479.932358 348,479.932358 348,475.129799 Z" id="路径" fill="#FBB03B"></path>
            <path d="M274.371666,472.024 C273.766818,473.112 274.035639,474.132 274.237256,474.608 C274.438872,475.084 274.909309,475.9 275.984596,476.24 C282.839546,478.416 292.651533,481 300.514565,481 C305.151737,481 307.638336,480.048 308.377596,479.164 C309.116855,478.348 309.04965,476.444 308.915239,475.424 C307.167899,460.124 302.127494,451.284 298.700019,447 C292.181096,451.624 280.487357,460.94 274.371666,472.024 Z" id="路径" fill="#FBB03B"></path>
            <path d="M339.780822,819.14938 C338.821918,820.220557 338.205479,821.425632 338,822.362913 C338,822.898502 338,823.434091 338,823.969679 L338,824.103577 C338.342466,835.016199 341.424658,842.380546 344.30137,847 C346.150685,842.581392 348,835.48484 348,824.371371 C348,819.61802 346.90411,816.002795 345.465753,816.002795 C344.09589,815.935847 341.630137,817.073973 339.780822,819.14938 Z" id="路径" fill="#FBB03B"></path>
            <path d="M401.622879,478.167665 C402.429959,479.0499 404.918455,480 409.491907,480 C417.293679,480 427.11315,477.421158 434.040585,475.249501 C435.116692,474.91018 435.654745,474.095808 435.789258,473.620758 C435.991028,473.145709 436.192798,472.127745 435.654745,471.041916 C429.53439,459.98004 417.831732,450.61477 411.307837,446 C407.877748,450.343313 402.766242,459.097804 401.084826,474.367265 C400.950312,475.453094 400.883056,477.353293 401.622879,478.167665 Z" id="路径" fill="#FBB03B"></path>
            <path d="M384.952247,468.433272 C382.690091,452.199269 375.038678,445.570384 370.580899,443 C367.054596,447.126143 361,456.798903 361,475.129799 C361,480 361.931476,480 363.727895,480 C367.919538,480 374.839076,477.294333 382.823159,472.627057 C384.353441,471.747715 385.218384,470.056673 384.952247,468.433272 Z" id="路径" fill="#FBB03B"></path>
            <path d="M392.408889,819 C389.845333,819 387.754012,819.613079 386.809544,820.566757 C386.404772,820.975477 386.202386,821.588556 386.067462,822.337875 C386.067462,822.950954 386.067462,823.495913 386,824.040872 C386.472234,833.713896 390.385029,840.253406 393.555743,844 C399.964632,838.209809 406.508445,830.171662 405.968749,824.926431 C405.833825,823.223433 399.762246,819 392.408889,819 Z" id="路径" fill="#FBB03B"></path>
            <path d="M292,433 C283.553134,436.67893 275.174387,441.093645 267,446.110368 C267.681199,448.183946 268.226158,450.525084 268.702997,453 C276.945504,443.568562 286.891008,436.411371 292,433 Z" id="路径" fill="#FF464E"></path>
            <path d="M440.297003,453 C440.773842,450.525084 441.318801,448.183946 442,446.110368 C433.757493,441.026756 425.378747,436.67893 417,433 C422.040872,436.344482 431.986376,443.501672 440.297003,453 Z" id="路径" fill="#FF464E"></path>
            <path d="M488,486.870085 C485.138468,483.373789 482.208803,479.877493 479.074744,476.582906 C471.375859,468.447293 463.131921,461.320228 454.547323,455 C448.89239,481.82735 459.92973,538.238746 468.446195,573 C476.281343,555.921937 486.978024,525.8 488,486.870085 Z" id="路径" fill="#FBB03B"></path>
            <path d="M130.361769,545.880277 C83.8556196,516.782342 63.5007542,476.570612 62.5571512,412.110603 C62.4223507,403.960486 62.4897509,396.281865 62.4897509,388.805312 C62.6919516,345.023696 62.826752,310.402542 29.3288444,248.367361 C23.6672262,237.859773 19.8928141,228.093105 17.6012067,219 C14.7029974,250.859545 11.6025874,278.67771 8.77177834,304.071047 C-3.49506107,414.266005 -9.15667926,464.581185 35.1926632,545.678208 C51.2339148,575.045569 85.7428257,622.666495 140,621.992932 C137.843193,606.433619 133.057778,570.734763 130.361769,545.880277 Z" id="路径" fill="url(#linearGradient-8)"></path>
            <path d="M58.4562427,144.009454 C51.5503425,148.529866 27.5151018,166.678985 29.0723146,200.615812 C33.0669039,214.042112 39.9050991,215.863771 42.2070659,216.403521 C61.3675536,221.396216 98.3344309,194.003866 120,173.155994 C111.401477,160.674258 103.412299,146.708208 95.1523004,132 C72.3357479,135.710786 60.6905045,142.592608 60.5550947,142.660077 L58.4562427,144.009454 Z" id="路径" fill="url(#linearGradient-9)"></path>
            <path d="M679.921569,200.549326 C681.547588,166.612012 657.428304,148.462634 650.517723,143.942156 L648.485199,142.66023 C648.349698,142.59276 636.696561,135.71084 613.864542,132 C605.598945,146.708418 597.604351,160.674669 589,173.156584 C610.680255,193.937285 647.604439,221.397498 666.845665,216.404732 C669.081441,215.730034 675.924272,213.908349 679.921569,200.549326 Z" id="路径" fill="url(#linearGradient-10)"></path>
            <path d="M674.802498,545.625666 C719.121292,464.541686 713.530928,414.234599 701.205184,304.057364 C698.376325,278.668111 695.27805,250.854421 692.381837,219 C690.091809,228.091642 686.38735,237.856739 680.662278,248.362637 C647.187444,310.387841 647.322152,345.003427 647.524213,388.778001 C647.524213,396.253351 647.591567,403.930738 647.456859,412.079543 C646.513906,476.529185 626.173061,516.734447 579.698946,545.827702 C577.004794,570.678191 572.155321,606.30396 570,621.995461 C624.287155,622.534225 658.704942,574.988303 674.802498,545.625666 Z" id="路径" fill="url(#linearGradient-11)"></path>
        </g>
    </g>
</svg>