<?xml version="1.0" encoding="UTF-8"?>
<svg width="1200px" height="1200px" viewBox="0 0 1200 1200" version="1.1" xmlns="http://www.w3.org/2000/svg" xmlns:xlink="http://www.w3.org/1999/xlink">
    <title>design</title>
    <g id="design" stroke="none" stroke-width="1" fill="none" fill-rule="evenodd">
        <circle id="椭圆形备份-2" fill="#F37E6A" cx="600" cy="599" r="600"></circle>
        <g id="编组-6" transform="translate(90.000000, 411.000000)">
            <path d="M792.883703,16 L173.116297,16 C77.492506,16 0,93.4443689 0,189 C0,284.539947 77.492506,362 173.116297,362 L792.883703,362 C888.480028,362 966,284.539947 966,189 C966,93.4443689 888.480028,16 792.883703,16" id="Fill-160" fill="#FFFFFF"></path>
            <path d="M830.51374,0 C726.40152,0 642,84.3984735 642,188.507851 C642,292.601527 726.40152,377 830.51374,377 C934.602405,377 1019,292.601527 1019,188.507851 C1019,84.3984735 934.602405,0 830.51374,0" id="Fill-162" fill="#FCBA63"></path>
            <path d="M227,271.81592 C227,274.934206 226.86333,277.591253 226.605609,279.708218 C226.351793,281.829126 225.961306,283.599177 225.430245,285.018371 C224.922613,286.441508 224.27831,287.442828 223.489528,288.069639 C222.731984,288.676739 221.833866,289 220.814696,289 L129.093362,289 C125.676606,289 122.814341,287.975026 120.483138,285.972385 C118.15584,283.922438 117,280.614926 117,276.053793 L117,92.5677166 C117,91.4954364 117.347533,90.5650755 118.019169,89.7253855 C118.682996,88.9132909 119.791977,88.2352313 121.338303,87.7227444 C122.884629,87.1905465 124.985446,86.7687303 127.613419,86.4651804 C130.241392,86.1419194 133.517572,86 137.44196,86 C141.456159,86 144.732339,86.1419194 147.317359,86.4651804 C149.898474,86.7687303 151.975861,87.1905465 153.498758,87.7227444 C155.068513,88.2352313 156.173589,88.9132909 156.841321,89.7253855 C157.512957,90.5650755 157.837061,91.4954364 157.837061,92.5677166 L157.837061,255.11279 L220.814696,255.11279 C221.833866,255.11279 222.731984,255.41634 223.489528,255.976133 C224.27831,256.535927 224.922613,257.489941 225.430245,258.771158 C225.961306,260.072086 226.351793,261.798773 226.605609,263.943333 C226.86333,266.083952 227,268.693692 227,271.81592" id="Fill-163" fill="#331618"></path>
            <path d="M384.206149,189.360213 C384.206149,178.752115 383.376113,169.096935 381.712125,160.418298 C380.044222,151.716035 377.221316,144.277766 373.243406,138.083803 C369.265496,131.921341 363.991634,127.12919 357.374835,123.758539 C350.73846,120.360326 342.47725,118.686813 332.532476,118.686813 C322.517227,118.686813 314.142474,120.592648 307.412133,124.361004 C300.701368,128.176611 295.270895,133.248337 291.128544,139.572244 C287.009685,145.927652 284.096728,153.346233 282.385757,161.816173 C280.67087,170.282175 279.817343,179.264013 279.817343,188.710496 C279.817343,199.735987 280.623887,209.643179 282.29179,218.439946 C283.955778,227.232775 286.731701,234.722234 290.666543,240.955574 C294.59747,247.216478 299.871332,251.985003 306.488131,255.241461 C313.101014,258.521544 321.428783,260.175368 331.467524,260.175368 C341.482773,260.175368 349.857526,258.293159 356.587867,254.54843 C363.298632,250.799763 368.73302,245.708348 372.875371,239.262374 C376.990315,232.816399 379.930679,225.279688 381.618159,216.715244 C383.32913,208.135049 384.206149,199.015393 384.206149,189.360213 Z M427,187.170865 C427,203.89811 424.920994,218.880965 420.802135,232.072178 C416.659784,245.287017 410.508902,256.501517 402.341658,265.71174 C394.154838,274.902274 384.069115,281.903461 372.017928,286.738926 C359.966741,291.582267 346.040142,294 330.218554,294 C314.604476,294 300.983267,291.956346 289.37059,287.861164 C277.71093,283.742355 268.040224,277.485389 260.268422,269.062701 C252.524027,260.640014 246.713773,249.917723 242.82983,236.911581 C238.941972,223.929065 237,208.528817 237,190.75415 C237,174.42461 239.082921,159.725267 243.197865,146.695499 C247.363708,133.622416 253.518505,122.545735 261.658342,113.378827 C269.845162,104.215856 279.934801,97.2146693 291.982072,92.3240763 C304.033259,87.4413588 318.006841,85 333.945887,85 C349.141032,85 362.558647,87.0239652 374.1909,91.0718955 C385.827069,95.1395143 395.540842,101.376792 403.359627,109.79948 C411.154921,118.222168 417.055226,128.849954 421.033136,141.694651 C425.011045,154.535411 427,169.679711 427,187.170865 L427,187.170865 Z" id="Fill-164" fill="#331618"></path>
            <path d="M623,119.847133 C623,122.879205 622.882213,125.461788 622.603451,127.654027 C622.348247,129.818665 621.998813,131.592959 621.535519,132.894108 C621.048667,134.1992 620.471512,135.082404 619.819759,135.618635 C619.124817,136.131209 618.335646,136.387496 617.409058,136.387496 C616.062363,136.387496 613.883309,135.456977 610.864043,133.591997 C607.85263,131.707303 603.85966,129.676722 598.896914,127.492369 C593.91061,125.30013 587.993791,123.273492 581.083638,121.388798 C574.169558,119.523818 566.191472,118.593299 557.051224,118.593299 C547.310263,118.593299 538.495891,120.269021 530.608108,123.671723 C522.720325,127.046824 515.994704,131.845303 510.384131,138.015904 C504.816746,144.218047 500.501826,151.666138 497.48256,160.379893 C494.467221,169.069991 492.983108,178.66695 492.983108,189.174713 C492.983108,200.727338 494.514335,210.9315 497.57679,219.735941 C500.639244,228.520667 504.907049,235.90173 510.384131,241.819986 C515.900475,247.757956 522.488678,252.229177 530.235117,255.237591 C537.938367,258.26572 546.473977,259.775841 555.798758,259.775841 C560.368882,259.775841 564.891892,259.263267 569.344229,258.218405 C573.800493,257.193257 577.950511,255.612164 581.778579,253.534269 L581.778579,206.688966 L543.690285,206.688966 C541.809624,206.688966 540.349069,205.50216 539.332177,203.148263 C538.287801,200.818024 537.753835,196.83572 537.753835,191.225008 C537.753835,188.287566 537.891253,185.862697 538.170015,183.859717 C538.401662,181.90405 538.817841,180.322957 539.332177,179.108552 C539.842586,177.925689 540.466855,177.014885 541.185354,176.454997 C541.927411,175.895108 542.763696,175.59545 543.690285,175.59545 L611.65714,175.59545 C613.302228,175.59545 614.762783,175.895108 616.062363,176.454997 C617.361943,177.014885 618.524105,177.902032 619.497809,179.041523 C620.471512,180.181014 621.233199,181.553134 621.767166,183.165771 C622.281501,184.794178 622.536706,186.635501 622.536706,188.709453 L622.536706,269.16777 C622.536706,272.286585 621.998813,275.015055 620.887692,277.365008 C619.819759,279.695248 617.59359,281.560228 614.205259,282.912634 C610.844412,284.261098 606.66691,285.660818 601.680606,287.103911 C596.71786,288.57066 591.566654,289.828438 586.230917,290.877243 C580.875548,291.90239 575.469138,292.694908 570.039171,293.207482 C564.61313,293.720056 559.139974,294 553.619704,294 C537.565376,294 523.183619,291.669761 510.474434,287.032939 C497.761322,282.40006 486.999543,275.689286 478.208729,266.884845 C469.394357,258.080404 462.641253,247.363669 457.980825,234.714924 C453.316472,222.06618 451,207.714113 451,191.690267 C451,175.13019 453.457816,160.26555 458.467677,147.104232 C463.43435,133.919256 470.485847,122.737261 479.598612,113.514875 C488.715303,104.288547 499.75977,97.2505141 512.653488,92.3613485 C525.551132,87.46824 539.932889,85 555.798758,85 C564.522827,85 572.453798,85.6032599 579.599525,86.8176656 C586.764883,88.0044711 593.007579,89.4751637 598.33939,91.1942574 C603.675128,92.8975796 608.131392,94.7389024 611.65714,96.7379403 C615.182889,98.6975494 617.640705,100.420586 619.030588,101.867621 C620.424397,103.334371 621.445215,105.408323 622.069485,108.061879 C622.697681,110.719377 623,114.630709 623,119.847133" id="Fill-165" fill="#331618"></path>
            <path d="M876.200857,189.360213 C876.200857,178.752115 875.370718,169.096935 873.702609,160.418298 C872.06191,151.716035 869.238655,144.277766 865.260253,138.083803 C861.277936,131.921341 855.983842,127.12919 849.366226,123.758539 C842.748609,120.360326 834.466799,118.686813 824.544289,118.686813 C814.523886,118.686813 806.152014,120.592648 799.42084,124.361004 C792.685751,128.176611 787.274185,133.248337 783.131322,139.572244 C778.992375,145.927652 776.079057,153.346233 774.363959,161.816173 C772.652776,170.282175 771.822637,179.264013 771.822637,188.710496 C771.822637,199.735987 772.629282,209.643179 774.273896,218.439946 C775.93809,227.232775 778.737851,234.722234 782.669263,240.955574 C786.581097,247.216478 791.855612,251.985003 798.469313,255.241461 C805.08693,258.521544 813.415729,260.175368 823.455711,260.175368 C833.495693,260.175368 841.871481,258.293159 848.57916,254.54843 C855.310333,250.799763 860.74931,245.708348 864.864762,239.262374 C869.007625,232.816399 871.944438,225.279688 873.636041,216.715244 C875.347224,208.135049 876.200857,199.015393 876.200857,189.360213 Z M919,187.170865 C919,203.89811 916.940316,218.880965 912.801368,232.072178 C908.682,245.287017 902.530357,256.501517 894.338609,265.71174 C886.174271,274.902274 876.063806,281.903461 864.034623,286.738926 C851.958452,291.582267 838.030131,294 822.206587,294 C806.614072,294 792.963769,291.956346 781.349656,287.861164 C769.715964,283.742355 760.020568,277.485389 752.247805,269.062701 C744.522031,260.640014 738.69148,249.917723 734.807057,236.911581 C730.918717,223.929065 729,208.528817 729,190.75415 C729,174.42461 731.059684,159.725267 735.198632,146.695499 C739.341495,133.622416 745.493137,122.545735 753.661391,113.378827 C761.825729,104.215856 771.936194,97.2146693 783.988871,92.3240763 C796.018054,87.4413588 810.016858,85 825.953959,85 C841.131404,85 854.550678,87.0239652 866.207864,91.0718955 C877.821978,95.1395143 887.536952,101.376792 895.356704,109.79948 C903.176456,118.222168 909.053996,128.849954 913.032398,141.694651 C917.010799,154.535411 919,169.679711 919,187.170865 L919,187.170865 Z" id="Fill-166" fill="#331618"></path>
        </g>
    </g>
</svg>