<?xml version="1.0" encoding="UTF-8"?>
<svg width="1200px" height="1200px" viewBox="0 0 1200 1200" version="1.1" xmlns="http://www.w3.org/2000/svg" xmlns:xlink="http://www.w3.org/1999/xlink">
    <title>Investment</title>
    <g id="Investment" stroke="none" stroke-width="1" fill="none" fill-rule="evenodd">
        <g id="编组" transform="translate(-0.000000, -0.000000)">
            <path d="M1200,600.002384 C1200,931.371824 931.371824,1200 600.002384,1200 C268.628176,1200 0,931.371824 0,600.002384 C0,268.628176 268.628176,0 600.002384,0 C931.371824,0 1200,268.628176 1200,600.002384" id="Fill-483" fill="#FCBB5F"></path>
            <path d="M1166.48109,599.630429 C1166.48109,910.389719 914.562297,1162.31328 603.798238,1162.31328 C293.038948,1162.31328 41.1153897,910.389719 41.1153897,599.630429 C41.1153897,288.86637 293.038948,36.9428118 603.798238,36.9428118 C914.562297,36.9428118 1166.48109,288.86637 1166.48109,599.630429" id="Fill-486" fill="#5C3D11"></path>
            <path d="M689.120151,940.018921 C689.120151,940.018921 741.128123,729.424839 722.296166,615.326395 C801.035374,624.056203 832.09662,722.346488 824.149496,794.604858 C815.183264,876.084654 748.290582,917.671759 689.120151,940.018921 Z M493.85052,374.144583 C493.85052,304.309331 531.789966,243.559775 601.062252,230.463576 C601.062252,230.463576 635.677083,306.963901 639.167455,512.015137 C597.581351,503.564437 493.85052,448.477328 493.85052,374.144583 Z M893.472091,785.378927 C893.472091,664.774021 865.675889,601.159872 714.140986,534.300833 C717.717581,335.322303 673.47573,220.973353 673.47573,220.973353 C739.358602,224.972202 787.024241,234.587573 812.041301,248.230424 L824.876929,192.666464 C789.784283,172.796288 743.980956,166.549876 666.308216,164.073261 L638.301907,73.7937559 L564.081608,78.1552691 L587.728196,164.073261 C473.133925,192.346747 425.988778,257.96032 425.988778,364.650377 C425.988778,472.676565 536.638768,559.253079 643.229872,591.978744 C670.109243,713.891149 609.765556,940.422609 609.765556,940.422609 C541.772064,936.552601 467.432385,917.030774 422.760771,889.549423 L405.298013,963.719007 C448.269671,992.336069 523.578707,996.425584 601.752839,998.620656 L573.288115,1098.95932 L647.503639,1090.23152 L669.994639,997.818977 C806.92233,968.285711 893.472091,893.729604 893.472091,785.378927 L893.472091,785.378927 Z" id="Fill-752" fill="#FFFFFE"></path>
        </g>
    </g>
</svg>