<?xml version="1.0" encoding="UTF-8"?>
<svg width="400px" height="400px" viewBox="0 0 400 400" version="1.1" xmlns="http://www.w3.org/2000/svg" xmlns:xlink="http://www.w3.org/1999/xlink">
    <title>NFT4EVER</title>
    <defs>
        <linearGradient x1="50%" y1="0%" x2="50%" y2="100%" id="linearGradient-1">
            <stop stop-color="#513C7D" offset="0%"></stop>
            <stop stop-color="#281C47" offset="100%"></stop>
        </linearGradient>
    </defs>
    <g id="NFT4EVER" stroke="none" stroke-width="1" fill="none" fill-rule="evenodd">
        <rect id="BG" fill="url(#linearGradient-1)" fill-rule="nonzero" x="0" y="0" width="400" height="400"></rect>
        <g id="Logo" transform="translate(84.632462, 75.862720)" fill="#FFFFFF" fill-rule="nonzero">
            <path d="M171.296162,225.130984 C178.778152,225.130984 185.198508,224.375875 190.557231,222.865658 C195.915953,221.355441 200.010826,219.190796 202.841849,216.371724 C202.841849,178.66522 202.841849,150.153411 202.841849,130.836297 C202.841849,115.653338 202.841849,92.4150381 202.841849,61.1213973 C202.841849,51.254645 200.516366,44.7607111 195.865399,41.6395956 C191.214432,38.5184801 184.440198,36.9579224 175.542696,36.9579224 C171.093946,36.9579224 166.594641,37.2599658 162.044782,37.8640527 C157.494923,38.4681395 154.107806,39.0722264 151.883431,39.6763133 L151.883431,88.6073501 C151.883431,99.4809138 151.984539,110.354478 152.186754,121.228041 C152.38897,132.101605 152.89451,142.975169 153.703374,153.848733 L152.186754,154.150776 C149.355731,146.901733 146.726924,140.508481 144.300333,134.971018 C141.873741,129.433555 139.143826,123.543708 136.110587,117.301477 L105.778194,56.2887023 C101.733876,48.0328484 96.3245989,42.7470882 89.5503647,40.4314219 C82.7761304,38.1157555 75.6480182,36.9579224 68.1660282,36.9579224 C61.4929019,36.9579224 55.2242075,37.9647338 49.359945,39.9783567 C43.4956825,41.9919796 39.1480397,45.012414 36.3170164,49.0396598 C36.3170164,85.0780392 36.3170164,112.41297 36.3170164,131.044453 C36.3170164,145.973352 36.3170164,168.978994 36.3170164,200.061378 C36.3170164,205.095436 36.9236642,209.173022 38.1369599,212.294138 C39.3502556,215.415253 41.0690912,217.881941 43.2934666,219.694202 C45.517842,221.506462 48.3488653,222.714636 51.7865364,223.318723 C55.2242075,223.92281 59.1674185,224.224853 63.6161693,224.224853 C68.0649202,224.224853 72.564225,223.92281 77.1140839,223.318723 C81.6639427,222.714636 85.0510598,222.110549 87.2754352,221.506462 L87.2754352,174.68973 C87.2754352,163.816166 87.2248813,152.74124 87.1237733,141.464952 C87.0226653,130.188663 86.5676794,119.113737 85.7588156,108.240174 L87.5787592,107.93813 C90.4097824,115.187173 93.0385898,121.580425 95.4651811,127.117888 C97.8917725,132.655351 100.621688,138.545198 103.654927,144.787429 L133.683995,205.800204 C137.93053,214.25742 143.390361,219.593521 150.063487,221.808506 C156.736613,224.023491 163.814171,225.130984 171.296162,225.130984 Z" id="Shadows" fill-opacity="0.4" transform="translate(119.579433, 131.044453) rotate(20.000000) translate(-119.579433, -131.044453) "></path>
            <path d="M162.137296,210.976373 C169.619286,210.976373 176.039642,210.221264 181.398365,208.711047 C186.757087,207.20083 190.85196,205.036185 193.682984,202.217113 C193.682984,164.510609 193.682984,135.9988 193.682984,116.681686 C193.682984,101.498727 193.682984,78.2604273 193.682984,46.9667865 C193.682984,37.1000342 191.3575,30.6061003 186.706533,27.4849848 C182.055567,24.3638693 175.281332,22.8033115 166.383831,22.8033115 C161.93508,22.8033115 157.435775,23.105355 152.885916,23.7094419 C148.336057,24.3135287 144.94894,24.9176156 142.724565,25.5217025 L142.724565,74.4527393 C142.724565,85.326303 142.825673,96.1998668 143.027889,107.073431 C143.230105,117.946994 143.735644,128.820558 144.544508,139.694122 L143.027889,139.996165 C140.196865,132.747123 137.568058,126.35387 135.141467,120.816407 C132.714875,115.278944 129.98496,109.389097 126.951721,103.146866 L96.6193287,42.1340915 C92.5750097,33.8782376 87.1657331,28.5924774 80.3914988,26.2768111 C73.6172646,23.9611447 66.4891524,22.8033115 59.0071624,22.8033115 C52.3340361,22.8033115 46.0653417,23.810123 40.2010792,25.8237459 C34.3368167,27.8373688 29.9891738,30.8578032 27.1581506,34.885049 C27.1581506,70.9234284 27.1581506,98.2583594 27.1581506,116.889842 C27.1581506,131.818741 27.1581506,154.824383 27.1581506,185.906768 C27.1581506,190.940825 27.7647984,195.018411 28.9780941,198.139527 C30.1913898,201.260642 31.9102253,203.72733 34.1346008,205.539591 C36.3589762,207.351852 39.1899995,208.560025 42.6276706,209.164112 C46.0653417,209.768199 50.0085527,210.070243 54.4573035,210.070243 C58.9060544,210.070243 63.4053592,209.768199 67.955218,209.164112 C72.5050769,208.560025 75.892194,207.955939 78.1165694,207.351852 L78.1165694,160.535119 C78.1165694,149.661555 78.0660154,138.586629 77.9649075,127.310341 C77.8637995,116.034052 77.4088136,104.959126 76.5999498,94.0855627 L78.4198933,93.7835193 C81.2509166,101.032562 83.8797239,107.425815 86.3063153,112.963278 C88.7329067,118.500741 91.462822,124.390588 94.4960612,130.632819 L124.525129,191.645593 C128.771664,200.102809 134.231495,205.43891 140.904621,207.653895 C147.577748,209.86888 154.655306,210.976373 162.137296,210.976373 Z" id="N" transform="translate(110.420567, 116.889842) rotate(20.000000) translate(-110.420567, -116.889842) "></path>
        </g>
    </g>
</svg>