<?xml version="1.0" encoding="UTF-8"?>
<svg width="1200px" height="1200px" viewBox="0 0 1200 1200" version="1.1" xmlns="http://www.w3.org/2000/svg" xmlns:xlink="http://www.w3.org/1999/xlink">
    <title>search</title>
    <defs>
        <path d="M494.299861,179.818345 C471.11261,122.921583 434.599604,71.5543165 388.02313,30.1269784 C459.556305,42.2172662 524.130231,78.8392086 571.71437,134.507194 C547.695082,152.631655 521.699982,167.83777 494.299861,179.818345 Z M348.985475,211.700719 L348.985475,31.5751799 C403.138091,73.1780576 444.851873,127.507554 470.13568,189.407194 C431.18584,203.36259 390.486308,210.844964 348.985475,211.700719 Z M323.007939,211.393525 C280.68385,209.440647 239.398161,200.597842 200.121214,185.106475 C226.140463,123.645683 268.479918,69.7989209 323.007939,28.8543165 L323.007939,211.393525 Z M323.007939,333.52518 L169.873728,333.61295 C170.0757,290.956835 177.109591,249.20036 190.786601,209.37482 C232.99214,226.007194 277.414979,235.398561 323.007939,237.395324 L323.007939,333.52518 Z M173.406041,489.404317 C146.517435,501.27518 121.055805,516.020504 97.605112,533.289209 C56.2557579,483.633453 31.9093635,423.796403 26.978615,359.636691 L144.684321,359.592806 C147.215556,404.596763 156.87069,448.218345 173.406041,489.404317 Z M279.500559,640.148921 C217.440304,628.629137 159.755376,597.997482 115.117392,552.664388 C136.416645,537.194964 159.489739,523.919784 183.842719,513.167986 C206.939961,561.441367 239.064469,604.07554 279.500559,640.148921 Z M87.7941078,150.196043 C112.302958,169.505396 138.846894,185.896403 166.839759,199.039928 C151.808221,242.11295 144.084991,287.336331 143.885215,333.61295 L25.990709,333.678777 C26.3814807,266.929856 47.7158594,203.647842 87.7941078,150.196043 Z M279.531293,30.9388489 C234.83184,70.9399281 199.372601,120.310432 176.290727,174.771583 C150.750064,162.63741 126.548562,147.628777 104.224082,130.096763 C150.332948,78.1809353 211.927789,43.4241007 279.531293,30.9388489 Z M350.276339,0.10971223 L318.312092,0 L318.009134,0.21942446 C139.564773,9.67661871 1.24791009e-13,156.691007 1.24791009e-13,335.543885 C1.24791009e-13,514.418705 139.564773,661.455036 318.026697,670.890288 L350.302683,671 C392.973636,669.200719 433.447047,659.611871 470.381559,643.63777 C455.198542,641.48741 440.625831,637.428058 426.922477,631.723022 C414.220201,635.628777 401.241312,638.722662 388.05606,640.960791 C394.850658,634.926619 401.412549,628.738849 407.735147,622.353597 C399.983378,617.965108 392.596037,613.028058 385.61703,607.586331 C374.137562,618.930576 361.909481,629.594604 348.985475,639.534532 L348.985475,569.055396 C337.367701,552.466906 328.487524,533.815827 323.007939,513.760432 L323.007939,642.255396 C273.845346,605.326259 234.252269,557.535612 208.024462,503.469424 C243.081953,490.720863 279.757414,483.150719 317.264912,480.91259 C316.880726,476.173022 316.691926,471.411511 316.687536,466.584173 L316.661191,466.584173 L316.661191,466.408633 L316.687536,466.408633 C316.687536,462.568705 316.81267,458.750719 317.051963,454.954676 C275.968246,457.280576 235.815356,465.57482 197.506557,479.661871 C182.198404,441.547842 173.193092,401.217626 170.692593,359.570863 L323.007939,359.505036 L323.007939,419.166547 C328.487524,399.111151 337.367701,380.482014 348.985475,363.893525 L348.985475,359.461151 L352.184095,359.461151 C357.367309,352.527338 363.04228,345.988489 369.15632,339.866547 C371.3363,337.694245 373.577749,335.565827 375.86969,333.503237 L348.985475,333.52518 L348.985475,237.72446 C393.458808,236.846763 437.181332,228.793885 479.079523,213.763309 C487.000333,237.768345 492.536997,262.409712 495.634632,287.467986 L495.803673,287.467986 L495.803673,287.489928 C504.710195,287.489928 513.463042,288.148201 522.020503,289.420863 C518.815297,260.391007 512.549778,231.88777 503.305173,204.196403 C533.236529,191.272302 561.61358,174.705755 587.7404,154.957554 C625.463042,207.268345 645.570222,268.816906 646.011486,333.34964 L615.47641,333.371583 C617.842994,335.5 620.148107,337.694245 622.396142,339.932374 C628.442127,345.988489 634.057824,352.461511 639.19713,359.329496 L645.054315,359.329496 C644.865515,361.765108 644.650371,364.222662 644.404493,366.680216 C652.698512,378.989928 659.49311,392.396763 664.544603,406.63741 C669.431444,383.729496 672,359.943885 672,335.543885 C672,154.738129 530.799694,7.67985612 350.276339,0.10971223 L350.276339,0.10971223 Z" id="path-1"></path>
        <linearGradient x1="0%" y1="50%" x2="100%" y2="50%" id="linearGradient-3">
            <stop stop-color="#00DEEB" offset="0%"></stop>
            <stop stop-color="#003987" offset="100%"></stop>
        </linearGradient>
        <path d="M261.950545,149.55185 C261.941765,180.52841 249.347103,208.609144 229.028387,228.901863 C208.705281,249.194581 180.651537,261.765097 149.69167,261.787036 L149.69167,261.765097 L149.548998,261.765097 L149.548998,261.787036 C118.564986,261.787036 90.478318,249.194581 70.1442374,228.879925 L70.1376525,228.879925 C49.8343013,208.565268 37.2571983,180.52841 37.2396386,149.595726 L37.2571983,149.595726 L37.2571983,149.464097 L37.2396386,149.464097 C37.2484184,118.487537 49.8408861,90.4068024 70.1793567,70.092146 L70.1727718,70.092146 C90.4827079,49.7994277 118.543037,37.2289114 149.496319,37.2069733 L149.496319,37.2289114 L149.638991,37.2289114 L149.638991,37.2069733 C180.640562,37.2069733 208.725036,49.7994277 229.034972,70.1140841 C249.353688,90.4287405 261.930791,118.465599 261.950545,149.398283 L261.930791,149.398283 L261.930791,149.55185 L261.950545,149.55185 Z M381.220113,331.506234 C344.869432,299.410832 308.518751,267.293492 272.165875,235.19809 C272.165875,235.19809 284.440074,215.322195 288.768529,204.375096 L288.768529,204.353158 C289.668461,202.04966 290.553029,199.65841 291.391502,197.15747 C296.409174,182.23958 299.1397,166.246724 299.155065,149.617664 L299.172624,149.617664 L299.172624,149.398283 L299.155065,149.398283 C299.124335,108.154704 282.392179,70.8161025 255.381039,43.8103335 C228.323806,16.7606884 190.91735,0.0219380739 149.641186,0 L149.496319,0 C108.233324,0.0438761477 70.8729631,16.7606884 43.8486538,43.7664574 C16.7826404,70.7941644 0.0351193103,108.176642 0.019754612,149.464097 L0,149.464097 L0,149.595726 L0.019754612,149.595726 C0.0460940947,190.839305 16.7826404,228.199844 43.8003648,255.205613 L43.8113395,255.183675 C70.8554034,282.23332 108.259664,298.972071 149.546803,298.994009 L149.595092,298.994009 C173.546462,298.994009 196.189637,293.355924 216.238373,283.3741 C220.145396,281.421612 223.964621,279.293618 227.656539,277.033997 C230.373895,275.366703 233.064913,273.611657 235.696666,271.768859 C273.544308,305.180546 311.387559,338.592232 349.233006,372.025857 C360.190231,378.673093 374.161131,376.764481 382.335151,367.923437 C391.472756,358.073242 391.321304,341.817129 381.220113,331.506234 L381.220113,331.506234 Z" id="path-4"></path>
        <linearGradient x1="-5.6425627e-05%" y1="49.996637%" x2="99.9996968%" y2="49.996637%" id="linearGradient-6">
            <stop stop-color="#00DEEB" offset="0%"></stop>
            <stop stop-color="#003987" offset="100%"></stop>
        </linearGradient>
    </defs>
    <g id="search" stroke="none" stroke-width="1" fill="none" fill-rule="evenodd">
        <circle id="椭圆形备份-4" fill="#000000" cx="600" cy="600" r="600"></circle>
        <g id="编组-2" transform="translate(266.000000, 250.000000)">
            <g id="编组" transform="translate(0.000000, 0.000000)">
                <mask id="mask-2" fill="white">
                    <use xlink:href="#path-1"></use>
                </mask>
                <g id="Clip-23"></g>
                <path d="M494.299861,179.818345 C471.11261,122.921583 434.599604,71.5543165 388.02313,30.1269784 C459.556305,42.2172662 524.130231,78.8392086 571.71437,134.507194 C547.695082,152.631655 521.699982,167.83777 494.299861,179.818345 Z M348.985475,211.700719 L348.985475,31.5751799 C403.138091,73.1780576 444.851873,127.507554 470.13568,189.407194 C431.18584,203.36259 390.486308,210.844964 348.985475,211.700719 Z M323.007939,211.393525 C280.68385,209.440647 239.398161,200.597842 200.121214,185.106475 C226.140463,123.645683 268.479918,69.7989209 323.007939,28.8543165 L323.007939,211.393525 Z M323.007939,333.52518 L169.873728,333.61295 C170.0757,290.956835 177.109591,249.20036 190.786601,209.37482 C232.99214,226.007194 277.414979,235.398561 323.007939,237.395324 L323.007939,333.52518 Z M173.406041,489.404317 C146.517435,501.27518 121.055805,516.020504 97.605112,533.289209 C56.2557579,483.633453 31.9093635,423.796403 26.978615,359.636691 L144.684321,359.592806 C147.215556,404.596763 156.87069,448.218345 173.406041,489.404317 Z M279.500559,640.148921 C217.440304,628.629137 159.755376,597.997482 115.117392,552.664388 C136.416645,537.194964 159.489739,523.919784 183.842719,513.167986 C206.939961,561.441367 239.064469,604.07554 279.500559,640.148921 Z M87.7941078,150.196043 C112.302958,169.505396 138.846894,185.896403 166.839759,199.039928 C151.808221,242.11295 144.084991,287.336331 143.885215,333.61295 L25.990709,333.678777 C26.3814807,266.929856 47.7158594,203.647842 87.7941078,150.196043 Z M279.531293,30.9388489 C234.83184,70.9399281 199.372601,120.310432 176.290727,174.771583 C150.750064,162.63741 126.548562,147.628777 104.224082,130.096763 C150.332948,78.1809353 211.927789,43.4241007 279.531293,30.9388489 Z M350.276339,0.10971223 L318.312092,0 L318.009134,0.21942446 C139.564773,9.67661871 1.24791009e-13,156.691007 1.24791009e-13,335.543885 C1.24791009e-13,514.418705 139.564773,661.455036 318.026697,670.890288 L350.302683,671 C392.973636,669.200719 433.447047,659.611871 470.381559,643.63777 C455.198542,641.48741 440.625831,637.428058 426.922477,631.723022 C414.220201,635.628777 401.241312,638.722662 388.05606,640.960791 C394.850658,634.926619 401.412549,628.738849 407.735147,622.353597 C399.983378,617.965108 392.596037,613.028058 385.61703,607.586331 C374.137562,618.930576 361.909481,629.594604 348.985475,639.534532 L348.985475,569.055396 C337.367701,552.466906 328.487524,533.815827 323.007939,513.760432 L323.007939,642.255396 C273.845346,605.326259 234.252269,557.535612 208.024462,503.469424 C243.081953,490.720863 279.757414,483.150719 317.264912,480.91259 C316.880726,476.173022 316.691926,471.411511 316.687536,466.584173 L316.661191,466.584173 L316.661191,466.408633 L316.687536,466.408633 C316.687536,462.568705 316.81267,458.750719 317.051963,454.954676 C275.968246,457.280576 235.815356,465.57482 197.506557,479.661871 C182.198404,441.547842 173.193092,401.217626 170.692593,359.570863 L323.007939,359.505036 L323.007939,419.166547 C328.487524,399.111151 337.367701,380.482014 348.985475,363.893525 L348.985475,359.461151 L352.184095,359.461151 C357.367309,352.527338 363.04228,345.988489 369.15632,339.866547 C371.3363,337.694245 373.577749,335.565827 375.86969,333.503237 L348.985475,333.52518 L348.985475,237.72446 C393.458808,236.846763 437.181332,228.793885 479.079523,213.763309 C487.000333,237.768345 492.536997,262.409712 495.634632,287.467986 L495.803673,287.467986 L495.803673,287.489928 C504.710195,287.489928 513.463042,288.148201 522.020503,289.420863 C518.815297,260.391007 512.549778,231.88777 503.305173,204.196403 C533.236529,191.272302 561.61358,174.705755 587.7404,154.957554 C625.463042,207.268345 645.570222,268.816906 646.011486,333.34964 L615.47641,333.371583 C617.842994,335.5 620.148107,337.694245 622.396142,339.932374 C628.442127,345.988489 634.057824,352.461511 639.19713,359.329496 L645.054315,359.329496 C644.865515,361.765108 644.650371,364.222662 644.404493,366.680216 C652.698512,378.989928 659.49311,392.396763 664.544603,406.63741 C669.431444,383.729496 672,359.943885 672,335.543885 C672,154.738129 530.799694,7.67985612 350.276339,0.10971223 L350.276339,0.10971223 Z" id="Fill-22" fill="url(#linearGradient-3)" mask="url(#mask-2)"></path>
            </g>
            <g id="编组" transform="translate(357.000000, 325.000000)">
                <mask id="mask-5" fill="white">
                    <use xlink:href="#path-4"></use>
                </mask>
                <g id="Clip-25"></g>
                <path d="M261.950545,149.55185 C261.941765,180.52841 249.347103,208.609144 229.028387,228.901863 C208.705281,249.194581 180.651537,261.765097 149.69167,261.787036 L149.69167,261.765097 L149.548998,261.765097 L149.548998,261.787036 C118.564986,261.787036 90.478318,249.194581 70.1442374,228.879925 L70.1376525,228.879925 C49.8343013,208.565268 37.2571983,180.52841 37.2396386,149.595726 L37.2571983,149.595726 L37.2571983,149.464097 L37.2396386,149.464097 C37.2484184,118.487537 49.8408861,90.4068024 70.1793567,70.092146 L70.1727718,70.092146 C90.4827079,49.7994277 118.543037,37.2289114 149.496319,37.2069733 L149.496319,37.2289114 L149.638991,37.2289114 L149.638991,37.2069733 C180.640562,37.2069733 208.725036,49.7994277 229.034972,70.1140841 C249.353688,90.4287405 261.930791,118.465599 261.950545,149.398283 L261.930791,149.398283 L261.930791,149.55185 L261.950545,149.55185 Z M381.220113,331.506234 C344.869432,299.410832 308.518751,267.293492 272.165875,235.19809 C272.165875,235.19809 284.440074,215.322195 288.768529,204.375096 L288.768529,204.353158 C289.668461,202.04966 290.553029,199.65841 291.391502,197.15747 C296.409174,182.23958 299.1397,166.246724 299.155065,149.617664 L299.172624,149.617664 L299.172624,149.398283 L299.155065,149.398283 C299.124335,108.154704 282.392179,70.8161025 255.381039,43.8103335 C228.323806,16.7606884 190.91735,0.0219380739 149.641186,0 L149.496319,0 C108.233324,0.0438761477 70.8729631,16.7606884 43.8486538,43.7664574 C16.7826404,70.7941644 0.0351193103,108.176642 0.019754612,149.464097 L0,149.464097 L0,149.595726 L0.019754612,149.595726 C0.0460940947,190.839305 16.7826404,228.199844 43.8003648,255.205613 L43.8113395,255.183675 C70.8554034,282.23332 108.259664,298.972071 149.546803,298.994009 L149.595092,298.994009 C173.546462,298.994009 196.189637,293.355924 216.238373,283.3741 C220.145396,281.421612 223.964621,279.293618 227.656539,277.033997 C230.373895,275.366703 233.064913,273.611657 235.696666,271.768859 C273.544308,305.180546 311.387559,338.592232 349.233006,372.025857 C360.190231,378.673093 374.161131,376.764481 382.335151,367.923437 C391.472756,358.073242 391.321304,341.817129 381.220113,331.506234 L381.220113,331.506234 Z" id="Fill-24" fill="url(#linearGradient-6)" mask="url(#mask-5)"></path>
            </g>
        </g>
    </g>
</svg>