<?xml version="1.0" encoding="UTF-8"?>
<svg width="1200px" height="1200px" viewBox="0 0 1200 1200" version="1.1" xmlns="http://www.w3.org/2000/svg" xmlns:xlink="http://www.w3.org/1999/xlink">
    <title>sport</title>
    <g id="sport" stroke="none" stroke-width="1" fill="none" fill-rule="evenodd">
        <circle id="椭圆形备份-4" fill="#EEB045" cx="600" cy="599" r="600"></circle>
        <g id="编组" transform="translate(188.000000, 125.000000)" fill-rule="nonzero">
            <path d="M932.424832,252.396758 C925.442639,247.814727 915.405737,241.705352 911.26006,239.523432 C907.114383,237.341513 905.587028,239.523432 902.750513,239.30524 C899.913997,238.868856 897.077481,239.087048 892.05903,242.359928 C887.040579,245.632807 877.440063,251.742182 872.639806,253.487718 C867.839548,255.233254 864.130258,254.79687 831.837616,247.596535 C799.544974,240.3962 753.942526,220.540731 732.341367,221.631691 C710.958401,222.722651 693.066532,223.159035 683.68421,220.104347 C683.68421,220.104347 680.193114,216.613276 674.738276,216.395084 C669.065244,215.9587 658.155568,216.176892 628.481248,203.085374 C598.806928,189.775664 583.533381,180.39341 567.38706,176.684147 C551.240739,172.974883 544.913127,172.756691 537.930934,173.629459 C530.948741,174.502227 528.984999,171.883923 524.839322,170.792964 C520.911838,169.702004 516.329774,170.35658 515.893387,166.210932 C515.457,162.283477 511.311323,158.13783 511.311323,158.13783 C511.311323,158.13783 509.129388,142.209816 511.74771,128.900107 C514.366033,115.590397 516.329774,107.08091 516.329774,107.08091 C516.329774,107.08091 523.966548,107.953678 530.512354,96.8258879 C537.05816,85.6980977 539.021901,84.8253298 539.021901,81.5524504 C539.021901,78.2795709 539.894675,72.1701959 534.439837,73.6975397 C528.984999,75.2248834 526.803064,78.061379 530.075967,69.7700843 C533.34887,61.4787897 537.71274,41.1869371 531.166934,25.4771157 C524.621128,9.76729429 511.311323,3.22153537 494.510422,1.2578077 C482.509778,-0.0513440858 461.999586,-3.76060747 447.38062,13.4765577 C439.307459,23.0770041 430.143331,32.4592585 431.670685,57.5513344 C433.19804,82.8616022 429.270557,95.5167361 430.361524,105.98995 C431.452492,116.463165 435.816363,127.590955 435.816363,127.590955 C435.816363,127.590955 431.452492,128.900107 428.179589,132.60937 C424.906686,136.318633 419.451848,142.864392 414.869784,145.700888 C410.28772,148.537383 402.214559,153.337606 393.923205,151.155687 C385.631851,148.973767 356.612112,146.355464 341.556758,153.555798 C326.501405,160.756133 308.173149,166.865508 304.027472,172.102115 C299.881795,177.338723 294.863343,185.848209 291.372247,185.848209 C287.662957,185.848209 282.208119,187.157361 279.153409,190.212048 C276.0987,193.266736 257.334057,196.103231 247.951735,198.939727 C238.569413,201.776222 238.35122,207.231022 238.35122,207.231022 C238.35122,207.231022 218.059222,219.23158 203.876642,222.068075 C189.912256,224.904571 148.019099,244.760039 121.835876,262.869972 C95.8708458,281.198097 73.1787189,294.944191 65.3237519,298.435262 C57.2505913,301.926334 54.4140755,307.381133 52.0139467,308.035709 C49.6138178,308.690285 42.1952379,310.654012 33.9038838,316.108812 C25.6125298,321.563611 24.7397556,322.218187 25.3943362,326.363834 C25.8307233,330.509481 19.2849174,331.164057 21.0304657,335.309704 C22.7760139,339.455352 18.8485304,341.200887 18.1939498,346.001111 C17.7575627,350.801334 18.1939498,355.819749 18.1939498,362.365508 C18.1939498,368.911267 19.0667239,369.129459 22.3396268,372.184146 C25.6125298,375.238834 27.794465,373.71149 27.794465,373.71149 C27.794465,373.71149 34.3402709,377.420753 37.6131738,376.547986 C40.8860767,375.675218 41.3224638,373.929682 41.9770444,371.093186 C42.6316249,368.256691 40.6678832,367.383923 40.6678832,367.383923 C40.6678832,367.383923 50.2683984,364.111044 57.6869784,364.547427 C65.1055583,364.983811 69.0330418,352.765061 71.4331707,346.873878 C73.8332995,340.982695 72.9605253,336.618856 76.6698153,334.218745 C80.3791053,331.818633 81.4700729,330.727673 88.2340723,323.527338 C94.9980717,316.327003 137.109423,305.635597 154.783098,299.526222 C172.456774,293.635039 196.239869,280.325329 209.113287,273.997762 C222.204899,267.670196 247.297154,264.615508 271.516636,255.451446 C271.516636,255.451446 278.280635,258.942517 281.771732,257.851557 C285.262828,256.760597 285.917409,250.214838 300.972762,246.069191 C316.028116,241.923544 325.410437,242.359928 325.410437,242.359928 C325.410437,242.359928 334.574565,261.560821 333.047211,280.325329 C331.519856,299.089838 336.538307,320.690843 336.10192,326.145642 C335.883727,331.600441 333.919985,345.346535 333.483598,348.619414 C333.047211,351.674102 337.411081,358.001669 333.483598,359.529012 C329.556114,361.056356 314.064374,364.983811 313.1916,373.056914 C312.318826,381.130017 312.100632,395.748878 303.591085,399.894526 C295.081537,404.040173 291.372247,407.09486 293.990569,417.131691 C296.608892,426.950329 276.971474,427.823097 270.643862,438.732695 C264.098056,449.642293 257.115863,456.624436 252.315605,463.824771 C247.733541,470.806914 250.13367,477.134481 246.642574,482.58928 C243.806058,486.953119 236.823865,488.044079 230.059866,493.280686 C224.386834,499.826445 218.495609,505.93582 212.604383,512.263387 C202.349287,522.736601 191.875998,532.991624 181.402709,543.028454 C179.220774,545.210374 176.820645,547.392293 174.420516,549.574213 C181.402709,541.282918 188.166708,532.773432 194.712514,524.045753 C200.385546,516.845418 206.058577,509.426891 211.513416,502.008365 C214.131738,498.517293 216.531867,495.026222 218.931996,491.53515 C216.968254,490.007807 214.568125,488.916847 212.167996,489.353231 C205.403997,490.225999 202.349287,493.498878 189.039482,493.935262 C175.729677,494.371646 166.347355,490.880575 162.638065,493.71707 C158.928775,496.553566 157.183227,498.299101 158.274195,506.808588 C159.365162,515.318075 158.274195,525.791289 158.274195,525.791289 C158.274195,525.791289 157.619614,530.155128 151.073808,539.973766 C144.528003,549.792405 127.290714,566.593186 123.36323,580.557472 C119.435747,594.521757 120.090327,605.649548 118.344779,611.977114 C116.599231,618.304681 110.708006,627.686936 115.29007,638.378342 C115.29007,638.378342 111.144393,656.924659 124.672391,661.50669 C138.20039,666.088722 152.38297,670.888945 162.201678,666.088722 C172.020387,661.288498 198.421804,646.233253 204.749416,639.469302 C211.077029,632.923543 234.64193,618.086489 234.64193,618.086489 C234.64193,618.086489 253.624767,617.650106 263.443475,620.050217 C273.262184,622.450329 283.735473,610.667963 292.026828,610.231579 C300.318182,609.795195 336.756501,589.721534 341.556758,579.24832 C346.138822,568.775106 348.757145,587.103231 346.138822,600.631132 C343.5205,614.159034 340.465791,630.305239 338.938436,637.287382 C337.411081,644.269525 352.466435,659.324771 352.466435,659.324771 C352.466435,659.324771 341.338565,672.63448 333.483598,681.143967 C325.628631,689.653454 302.936504,712.345418 298.790827,730.455351 C294.426956,748.347092 281.553538,777.148431 276.0987,790.676333 C270.643862,804.204235 269.552894,810.095418 269.334701,811.622761 C269.116507,813.150105 263.879862,827.332583 260.388766,831.041846 C256.89767,834.75111 250.13367,841.296868 248.169928,847.188052 C246.206187,853.297426 245.333413,858.09765 240.751348,861.588721 C236.169284,865.079793 232.678188,867.04352 232.241801,873.589279 C231.58722,880.135038 230.059866,890.171868 231.369027,892.353788 C232.678188,894.535708 249.47909,894.535708 259.297798,892.353788 C269.116507,890.171868 284.608248,892.57198 292.026828,893.881132 C299.445407,895.190284 331.083469,896.717627 337.629275,889.735484 C344.175081,882.753342 332.829017,877.516734 324.31947,874.025663 C316.028116,870.534592 299.881795,865.079793 298.136246,859.624993 C296.390698,854.170194 293.772376,851.333699 296.608892,845.224324 C299.445407,839.114949 304.027472,831.696422 306.4276,831.260038 C308.827729,830.823654 313.409793,829.950886 318.646438,822.968744 C323.883083,815.986601 389.122948,735.473766 395.886947,718.454793 C402.432753,701.43582 412.687849,683.325887 413.99701,676.561936 C415.306171,669.797985 422.288364,664.77957 429.706944,658.888387 C437.125524,652.997204 456.981135,626.595976 463.745134,615.90457 C470.509133,605.213164 485.564487,564.411266 486.219067,557.429124 C486.873648,550.446981 489.928357,543.68303 494.946809,538.664615 C499.96526,533.646199 498.437905,503.535708 503.456356,498.735485 C508.474807,494.153454 517.857129,491.753342 517.857129,477.570865 C517.857129,463.606579 510.874936,421.713722 532.257902,376.329794 C553.640868,330.945865 559.750286,304.981021 563.023189,288.398432 C566.077899,271.815843 576.551188,268.106579 593.133896,271.815843 C609.716604,275.525106 631.317764,285.780129 634.590667,282.725441 C637.86357,279.670754 645.718537,268.761155 645.718537,268.761155 C645.718537,268.761155 668.410663,271.379459 685.211565,271.379459 C702.012467,271.379459 714.013111,281.198097 743.251044,284.470977 C772.488976,287.525664 834.892325,280.979905 852.784195,281.634481 C870.676064,282.070865 895.550126,285.343745 901.441351,283.161825 C907.332577,280.979905 908.641738,280.543521 914.532963,280.543521 C920.424188,280.543521 924.788059,273.779571 924.788059,273.779571 C924.788059,273.779571 930.024704,273.779571 932.206639,268.324771 C934.388574,262.869972 939.407025,256.978789 932.424832,252.396758 Z" id="路径" fill="#616790"></path>
            <circle id="XMLID_2_" fill="#F05A29" cx="65.5" cy="826.5" r="65.5"></circle>
        </g>
    </g>
</svg>