<?xml version="1.0" encoding="UTF-8"?>
<svg width="1200px" height="1200px" viewBox="0 0 1200 1200" version="1.1" xmlns="http://www.w3.org/2000/svg" xmlns:xlink="http://www.w3.org/1999/xlink">
    <title>trading card</title>
    <g id="trading-card" stroke="none" stroke-width="1" fill="none" fill-rule="evenodd">
        <circle id="椭圆形备份-3" fill="#6488D2" cx="600" cy="600" r="600"></circle>
        <g id="编组-2" transform="translate(118.000000, 115.000000)" fill="#C08B23">
            <path d="M475.801899,266 C355.551362,266 246,378.012481 246,501.005483 C246,628.702249 335.228048,725 453.584473,725 C569.432478,725 699,630.386876 699,503.760762 C699,377.104203 594.721437,266 475.801899,266" id="Fill-63"></path>
            <path d="M99.0963855,476.014777 C99.0963855,467.650568 99.3473896,459.276626 100,451 L13.9558233,451 C6.2248996,451 0,457.028654 0,464.497567 C0,471.96648 6.2248996,478 13.9558233,478 L99.0963855,478 L99.0963855,476.014777" id="Fill-64"></path>
            <path d="M48.0631778,316.297136 L102.667869,339.510492 L134.26206,353 C137.778271,343.566662 141.708154,334.242951 146,325.220712 L58.6635203,288.112231 C51.320844,284.965958 42.9956971,288.720657 40.0482848,296.526045 C37.0491635,304.331433 40.7205016,313.156345 48.0631778,316.297136" id="Fill-65"></path>
            <path d="M73.610037,623.925282 L29.5830895,642.877109 C22.6032076,645.887754 19.1864822,654.346984 21.9686729,661.828936 C24.799674,669.310888 32.6093321,672.904747 39.589214,669.988677 L83.1768682,651.13668 L113,638.311227 C109.534464,629.368613 106.31298,620.231594 103.433169,611 L73.610037,623.925282" id="Fill-66"></path>
            <path d="M156.639322,137.118276 C151.200407,131.627241 142.418305,131.627241 137.079186,137.118276 C131.640271,142.614344 131.640271,151.457377 137.079186,156.852784 L181.338983,201.631645 L204.641492,225 C211.178169,218.3866 218.014237,212.060082 225,206.100975 L201.647593,182.546398 L156.639322,137.118276" id="Fill-67"></path>
            <path d="M131.408528,812.45186 C125.530491,818.331742 125.530491,827.792321 131.408528,833.666818 C137.232638,839.444394 146.669854,839.444394 152.547892,833.666818 L187.870042,798.409066 L213,773.311879 C205.612008,766.538169 198.655432,759.37139 191.96849,752 L131.408528,812.45186" id="Fill-68"></path>
            <path d="M314.032354,121.371097 L326.684187,152 C335.287434,148.377119 344.09311,145.130575 353,142.255352 L340.348167,111.626449 L314.032354,47.6840985 C311.046522,40.5336747 302.898741,37.1014713 295.7125,40.0670155 C288.576866,42.9472564 285.135568,51.1163019 288.020186,58.1663688 L314.032354,121.371097" id="Fill-69"></path>
            <path d="M298.493764,869.482147 L280.067397,911.939067 C277.049286,919.029328 280.64984,927.040725 288.115695,929.988362 C295.6345,932.846374 304.159342,929.43568 307.283352,922.440022 L339,849.311749 C329.733868,846.184864 320.626583,842.779149 311.678147,839 L298.493764,869.482147" id="Fill-70"></path>
            <path d="M486,119 L486,13.8186802 C486,6.16985396 479.967568,0 472.524324,0 C465.032432,0 459,6.16985396 459,13.8186802 L459,118.357618 C460.8,118.263004 462.697297,118.263004 464.497297,118.263004 C471.697297,118.263004 478.897297,118.447253 486,119" id="Fill-71"></path>
            <path d="M459,878.619351 L459,956.681557 C459,964.051352 465.032432,970 472.524324,970 C479.967568,970 486,964.051352 486,956.681557 L486,878 C478.897297,878.53293 471.697297,878.710573 464.497297,878.710573 C462.697297,878.710573 460.8,878.710573 459,878.619351" id="Fill-72"></path>
            <path d="M650.51567,861.962702 L637.795832,831 C629.400739,835.116896 620.751249,838.955624 612,842.506068 L644.868062,922.305073 C647.768185,929.411018 656.06152,932.875483 663.184629,929.972413 C670.460377,926.978307 673.920173,918.840609 670.918291,911.638569 L650.51567,861.962702" id="Fill-73"></path>
            <path d="M639.806037,121.403695 L670.830516,52.1459705 C674.075985,45.1034068 670.335445,36.9430554 662.469309,34.0658799 C654.768197,31.1034919 645.801902,34.5320425 642.66645,41.6748562 L611.696978,110.646868 L598,141.243173 C607.571382,144.486261 616.922732,148.105287 626.054051,152 L639.806037,121.403695" id="Fill-74"></path>
            <path d="M813.911989,155.741061 C819.36267,150.370925 819.36267,141.569312 813.911989,136.098987 C808.461308,130.633671 799.660208,130.633671 794.309539,136.098987 L718,212.543275 C724.850856,218.654811 731.401675,225.237235 737.802475,232 L813.911989,155.741061" id="Fill-75"></path>
            <path d="M773.440478,760.790388 L750.494098,738 C744.671882,744.820623 738.556109,751.456904 732,757.826376 L794.82122,820.099729 C800.056322,825.30009 808.66733,825.30009 814.000284,820.099729 C819.333239,814.802347 819.333239,806.278994 814.000284,800.986462 L773.440478,760.790388" id="Fill-76"></path>
            <path d="M916.414322,642.970942 L857.592535,617.882157 L827.318791,605 C824.606974,614.300289 821.50071,623.406821 818,632.413858 L848.224439,645.296015 L906.208027,669.992052 C913.258753,672.898392 921.147676,669.316524 924.007411,661.859536 C926.81784,654.402547 923.465047,645.971542 916.414322,642.970942" id="Fill-77"></path>
            <path d="M949.752799,465 L845,465 C845.666236,473.278118 845.97373,481.648702 845.97373,490.019286 L845.97373,492 L949.752799,492 C957.645134,492 964,485.97026 964,478.5 C964,471.02974 957.645134,465 949.752799,465" id="Fill-78"></path>
            <path d="M817.062067,365 L848.117045,351.196002 L916.163981,320.995548 C923.420291,317.774615 926.870844,308.745903 923.978469,300.755296 C921.03535,292.759077 912.916402,288.920893 905.660092,292.136214 L837.156465,322.549901 L806,336.353899 C810.008731,345.696848 813.763744,355.241808 817.062067,365" id="Fill-79"></path>
        </g>
        <path d="M748.244016,623.737414 C735.68643,628.759517 723.732745,634.909391 712.365199,642.204657 C711.548157,642.733299 710.979779,643.385292 710.571258,644.072527 C702.187693,640.812565 693.804128,637.499739 685.402801,634.27502 C694.408029,629.887288 703.431018,625.499555 712.436246,621.111823 C718.581826,618.116182 713.46643,608.847318 707.303089,611.842958 L675.47396,627.332182 C674.319443,627.896068 673.555686,628.689031 673.129403,629.570102 C664.443888,626.239655 655.776134,622.891586 647.072856,619.596381 L682.099108,605.111578 C688.404543,602.503608 683.253624,593.252366 676.96595,595.842714 C662.898612,601.657781 648.849035,607.472848 634.781697,613.287915 C634.106749,613.569857 633.591657,613.922285 633.165374,614.345199 C566.061329,589.058469 534.711768,577.357849 466.843966,554.185688 C480.325165,550.185627 493.841888,546.36178 507.482943,542.87274 C514.108091,541.181084 511.674726,530.872556 505.014054,532.581833 C487.198978,537.14578 469.525996,542.167883 451.977347,547.595279 C449.135461,545.604059 444.979202,547.225229 443.824685,550.22087 C442.119553,552.864082 442.528075,557.057979 446.435668,558.397207 C446.488954,558.397207 446.524477,558.414828 446.560001,558.432449 C455.423135,573.798323 465.050025,588.600312 475.689338,602.838415 C479.756788,608.283433 487.429881,600.952924 483.397955,595.525528 C475.742623,585.269865 468.67343,574.62653 462.030521,563.718874 C529.258899,586.644335 559.933511,598.063012 626.398132,623.0678 C626.344847,623.966492 626.57575,624.918048 627.197412,625.904848 C636.007261,639.984358 645.243392,653.781926 654.852521,667.315173 C658.760115,672.813055 668.156102,667.808573 664.212984,662.240206 C656.43332,651.297307 648.99113,640.142951 641.744319,628.865245 C650.785071,632.2838 659.825822,635.77284 668.848812,639.244259 C676.27324,653.799548 685.225183,667.368037 695.598069,680.020213 C699.931945,685.306638 707.622801,677.976129 703.306686,672.724948 C696.166446,664.002347 689.825487,654.786347 684.194999,645.11219 C691.885854,648.072588 699.541186,651.103471 707.21428,654.099112 C707.32085,654.381055 707.445183,654.662997 707.605039,654.94494 L726.983153,688.760435 C730.357893,694.663609 739.718357,689.606263 736.325855,683.667846 C731.849883,675.843938 727.35615,668.02003 722.880179,660.196122 C725.491162,661.235785 728.102145,662.240206 730.713129,663.262248 C737.089612,665.78211 740.14464,655.649796 733.821442,653.147555 C729.949372,651.614492 726.077301,650.134293 722.205231,648.618852 C732.151834,642.574706 742.52472,637.341146 753.377174,633.006278 C759.700371,630.468794 754.549452,621.19993 748.244016,623.737414" id="Fill-40" fill="#FFFFFF"></path>
    </g>
</svg>