<?xml version="1.0" encoding="UTF-8"?>
<svg width="1200px" height="1200px" viewBox="0 0 1200 1200" version="1.1" xmlns="http://www.w3.org/2000/svg" xmlns:xlink="http://www.w3.org/1999/xlink">
    <title>utility</title>
    <g id="utility" stroke="none" stroke-width="1" fill="none" fill-rule="evenodd">
        <rect fill="#FFFFFF" x="0" y="0" width="1200" height="1200"></rect>
        <circle id="椭圆形" fill="#6488D2" cx="600" cy="600" r="600"></circle>
        <g id="编组-2" transform="translate(180.000000, 322.000000)">
            <path d="M534.654421,30.9509706 C457.019004,-1.89134963 365.007959,2.9711247 288.671439,51.9766535 C165.750158,130.881749 130.012941,294.484445 208.947255,417.37642 C287.916674,540.333322 451.595232,575.942918 574.516513,497.039577 C603.917219,478.159981 628.315417,454.470554 647.324948,427.597969 L839,127.375714 L535.198554,31.117674 L534.654421,30.9509706" id="Fill-420" fill="#F37E6A"></path>
            <path d="M295.833047,205.33289 C233.338765,245.46245 215.207165,328.657365 255.335628,391.162919 C295.48166,453.659689 378.672671,471.792747 441.166953,431.666701 C503.661235,391.537141 521.792835,308.342226 481.664372,245.845456 C441.53591,183.339902 358.327329,165.206843 295.833047,205.33289" id="Fill-421" fill="#FBFBFB"></path>
            <path d="M205.354608,541.87001 L17.6742381,248.288732 L198.637959,235.125839 L386.335866,528.708871 L205.354608,541.87001 Z M207.406431,224.971257 C206.143771,222.980334 203.881505,221.852437 201.531555,222.01557 L5.9595598,236.24672 C3.69729408,236.402836 1.68054557,237.748244 0.698476725,239.768986 C-0.336202946,241.802008 -0.213444341,244.215673 1.01414171,246.122398 L196.586137,552.036871 C197.848797,554.02604 200.111062,555.166216 202.461013,554.98028 L398.050545,540.761408 C399.120298,540.687735 400.154978,540.324633 401.049362,539.756299 C402.013894,539.144112 402.803056,538.274071 403.329165,537.228617 C404.32877,535.195595 404.206012,532.790701 402.995963,530.883976 L207.406431,224.971257 L207.406431,224.971257 Z" id="Fill-422" fill="#312113"></path>
            <path d="M199.44477,222.041673 L25.3981808,234.71427 L266.534179,26.9514997 L440.598309,14.2789035 L199.44477,222.041673 Z M459.085168,0.0182803329 L263.482269,14.2578235 C262.114171,14.3614669 260.816232,14.8814403 259.763849,15.7931505 L2.22821763,237.672497 C0.140991576,239.488891 -0.578136729,242.445361 0.491785871,245.008339 C1.54416876,247.583612 4.14004654,249.180423 6.91132147,248.983676 L202.496681,234.73535 C203.566603,234.663326 204.618986,234.31902 205.513512,233.737563 C205.759068,233.574193 205.987084,233.396769 206.23264,233.200023 L463.768272,11.3206762 C465.873038,9.51482246 466.574626,6.54605513 465.504704,3.97253789 C464.452321,1.40956064 461.856443,-0.190763047 459.085168,0.0182803329 L459.085168,0.0182803329 Z" id="Fill-423" fill="#312113"></path>
            <path d="M399.457821,524.832752 L210.8526,229.512825 L458.53179,16.1732305 L647.119472,311.48262 L399.457821,524.832752 Z M465.372303,2.97320091 C464.372536,1.39783814 462.723797,0.338815016 460.88212,0.0683513984 C459.040444,-0.200355962 457.216307,0.328277473 455.742966,1.56468258 L198.22396,223.390512 C195.803471,225.476946 195.294818,229.035123 197.013716,231.732734 L392.617308,538.020488 C393.617076,539.597607 395.248275,540.65663 397.089952,540.935875 C398.650992,541.153651 400.212032,540.812937 401.509975,539.971689 C401.755532,539.815383 402.018629,539.629219 402.246646,539.430762 L659.748112,317.61547 C662.186141,315.518499 662.712334,311.960322 660.993436,309.252173 L465.372303,2.97320091 L465.372303,2.97320091 Z" id="Fill-424" fill="#312113"></path>
        </g>
    </g>
</svg>