<?xml version="1.0" encoding="UTF-8"?>
<svg width="1200px" height="1200px" viewBox="0 0 1200 1200" version="1.1" xmlns="http://www.w3.org/2000/svg" xmlns:xlink="http://www.w3.org/1999/xlink">
    <title>virtual</title>
    <g id="virtual" stroke="none" stroke-width="1" fill="none" fill-rule="evenodd">
        <circle id="椭圆形备份" fill="#FCBB5F" cx="600" cy="600" r="600"></circle>
        <g id="编组-5" transform="translate(211.000000, 112.000000)">
            <path d="M309,642.753927 L309.577858,933.163256 C324.917351,955.602664 430.402635,1018.67573 616,934.560794 L615.15948,527 C615.15948,527 499.272758,581.756147 309,642.753927" id="Fill-379" fill="#F37E6A"></path>
            <path d="M309,642.627316 L309.263023,767.113516 C314.944311,768.357328 320.678204,769.811067 326.622515,771.857847 C413.840816,801.683103 543.826594,792.199689 616,726.398342 L615.579164,527 C615.579164,527 499.533585,581.696255 309,642.627316" id="Fill-380" fill="#BF5E4F"></path>
            <path d="M449.864626,169.153655 C411.974561,155.987875 290.621103,158.904844 255.783293,166.16836 C141.007971,190.455415 144.428602,291.461393 144.007602,408.560631 C143.481351,539.934625 169.951771,766.422843 325.669413,764.993265 C414.02694,764.189127 574.849215,643.710409 610.371151,562.94452 C623.053798,534.1585 616.107286,459.699572 616.054661,421.043158 C615.73891,281.901091 539.85353,200.667436 449.864626,169.153655" id="Fill-381" fill="#F37E6A"></path>
            <path d="M244.877039,508.685258 C244.666248,508.032284 244.350063,507.063357 246.141782,504.825344 C293.780427,444.441131 277.813049,364.388737 277.12798,361.029086 L276.601004,358.669957 L275.125471,356.832154 C273.544542,354.936425 236.972396,310.602712 175,331.661094 L181.323714,350.418273 C224.166876,335.921217 251.464241,360.53409 258.104141,367.532487 C260.31744,380.844712 268.169385,444.878202 230.543287,492.534706 C223.6399,501.33931 224.272271,509.554133 226.06399,514.935895 C234.126725,539.296004 285.664994,554.261726 295.835634,557 L301,537.863676 C279.657465,532.13963 248.249686,518.795809 244.877039,508.685258" id="Fill-382" fill="#200C0E"></path>
            <path d="M418.581514,67.0772077 C234.967601,1.43212582 227.814495,-38.9725298 95.1664608,56.9852422 C-57.4155964,167.318809 116.152411,365.936049 176.848617,276.690485 C237.492227,187.471202 498.633183,226.193864 498.633183,226.193864 C498.633183,226.193864 464.918912,411.402456 559.276793,418.140945 C653.634673,424.874178 583.576314,706.319122 615.712693,654.676643 C688.979431,536.826664 763.140307,273.736482 683.982776,164.306988 C604.772649,54.8722369 602.248024,132.753827 418.581514,67.0772077" id="Fill-383" fill="#8E453E"></path>
            <path d="M501,482 C571.171609,425.561595 638.287697,454.202373 638.287697,454.202373 L668,367.463236 L519.701893,291 L501,482" id="Fill-391" fill="#6488D2"></path>
            <path d="M472.787601,269.007608 L107.440825,274.725551 C47.1806915,275.693446 -0.93276567,325.292788 0.0137285693,385.581054 C0.960222808,445.843018 50.5985873,493.948435 110.858721,492.985801 L476.205497,487.29942 C509.753459,486.77339 536.518213,459.114748 535.992383,425.548791 L534.467475,328.86453 C533.941645,295.298574 506.335563,268.481579 472.787601,269.007608" id="Fill-392" fill="#200C0E"></path>
            <path d="M345.191311,271.012314 L93.3910759,274.927188 C40.969937,275.762712 -0.777690139,318.857854 0.0109929933,371.201558 L0.431623997,399.672413 C1.27288601,452.010862 44.3875639,493.802798 96.8087028,492.988294 L348.608938,489.047145 C400.977498,488.211622 442.777704,445.11648 441.989021,392.778031 L441.515811,364.307176 C440.674549,311.963472 397.559871,270.176791 345.191311,271.012314" id="Fill-393" fill="#6488D2"></path>
            <path d="M311.265455,291.001695 L113.260976,294.077757 C105.262921,294.203954 98.8960484,300.792512 99,308.7745 C99.1591423,316.756488 105.73649,323.129458 113.734545,322.998002 L311.739024,319.927198 C319.737079,319.801001 326.103952,313.217701 326,305.230455 C325.840858,297.248468 319.26351,290.880755 311.265455,291.001695" id="Fill-394" fill="#FCBB5F"></path>
            <path d="M700.798208,358.571575 L700.167118,338.834253 C700.167118,338.834253 670.505902,320.19111 646.103767,320 C603.031895,319.633499 567.638282,377.998529 567.007192,450.351177 C566.428693,522.703825 600.823081,581.626466 643.894953,582 C647.891855,582.031523 707.161695,563.38312 707.161695,563.38312 L706.16247,531.220543 C716.470268,509.210692 722.781165,481.677338 722.991529,451.655776 C723.307073,415.353201 714.787363,382.412073 700.798208,358.571575" id="Fill-395" fill="#200C0E"></path>
            <path d="M700.946103,339 C657.872878,338.66532 622.530745,388.746825 622.00482,450.853356 C621.531488,512.98091 655.979549,563.661564 699.052774,564 C742.178592,564.371083 777.468133,514.284322 777.994057,452.156768 C778.519982,390.050237 744.07192,339.380094 700.946103,339" id="Fill-396" fill="#6488D2"></path>
            <path d="M711.393143,392 C693.151328,391.849124 678.211911,412.985946 678.002235,439.222595 C677.792559,465.454013 692.365043,486.873287 710.606857,486.998821 C728.796253,487.181892 743.788089,466.013687 743.997765,439.777038 C744.207441,413.545619 729.634957,392.157729 711.393143,392" id="Fill-397" fill="#FCBB5F"></path>
            <path d="M735.410878,388.468736 L682.800621,388.00058 C675.239549,387.93142 669.053217,394.060009 669,401.667545 C668.947468,409.275082 675.02805,415.49943 682.589122,415.557949 L735.146505,415.999506 C742.707577,416.063345 748.893909,409.934756 749,402.35914 C749.052532,394.719683 742.97195,388.532575 735.410878,388.468736" id="Fill-398" fill="#FCBB5F"></path>
            <path d="M277.997481,582.250855 C252.655416,578.880473 245,568 245,568 C245,568 255.136826,599.013797 271.239597,644.278449 C287.289571,689.537867 359.144886,676.956503 359.989621,636.731723 C360.887153,596.506944 303.339546,585.589836 277.997481,582.250855" id="Fill-403" fill="#200C0E"></path>
        </g>
    </g>
</svg>